<?xml version="1.0" encoding="UTF-8"?>
<!DOCTYPE svg PUBLIC "-//W3C//DTD SVG 1.1//EN" "http://www.w3.org/Graphics/SVG/1.1/DTD/svg11.dtd">
<svg xmlns="http://www.w3.org/2000/svg" version="1.1" width="1378px" height="1378px" style="shape-rendering:geometricPrecision; text-rendering:geometricPrecision; image-rendering:optimizeQuality; fill-rule:evenodd; clip-rule:evenodd" xmlns:xlink="http://www.w3.org/1999/xlink">
<g><path style="opacity:0.545" fill="#a0f1eb" d="M 62.5,335.5 C 59.8333,336.167 57.1667,336.833 54.5,337.5C 52.8828,338.038 51.2161,338.371 49.5,338.5C 50.4293,337.685 51.4293,336.852 52.5,336C 55.8168,335.502 59.1501,335.335 62.5,335.5 Z"/></g>
<g><path style="opacity:0.997" fill="#81e2d8" d="M 181.5,345.5 C 176.864,342.861 172.031,340.528 167,338.5C 164.205,337.815 161.372,337.315 158.5,337C 123.826,336.288 89.1597,336.455 54.5,337.5C 57.1667,336.833 59.8333,336.167 62.5,335.5C 96.1699,334.164 129.837,334.33 163.5,336C 168.814,337.244 173.814,339.244 178.5,342C 180.063,342.759 181.063,343.926 181.5,345.5 Z"/></g>
<g><path style="opacity:1" fill="#29dac8" d="M 181.5,345.5 C 183.749,346.08 185.415,347.413 186.5,349.5C 187.082,350.931 187.915,352.264 189,353.5C 189.671,354.252 190.504,354.586 191.5,354.5C 193.9,356.296 195.567,358.63 196.5,361.5C 197.188,365.223 198.188,368.889 199.5,372.5C 201.609,374.595 203.276,376.928 204.5,379.5C 204.5,380.5 204.5,381.5 204.5,382.5C 204.077,384.781 204.744,386.448 206.5,387.5C 205.839,392.356 206.839,396.69 209.5,400.5C 209.5,401.167 209.5,401.833 209.5,402.5C 209.517,406.534 210.517,410.201 212.5,413.5C 212.5,414.5 212.5,415.5 212.5,416.5C 213.05,423.3 214.716,429.633 217.5,435.5C 217.5,436.167 217.5,436.833 217.5,437.5C 217.132,441.044 218.132,444.044 220.5,446.5C 220.5,447.5 220.5,448.5 220.5,449.5C 220.077,451.781 220.744,453.448 222.5,454.5C 222.5,456.167 222.5,457.833 222.5,459.5C 221.976,463.428 222.976,466.761 225.5,469.5C 225.5,470.167 225.5,470.833 225.5,471.5C 225.338,473.527 225.505,475.527 226,477.5C 226.383,478.056 226.883,478.389 227.5,478.5C 226.886,483.069 227.886,487.069 230.5,490.5C 230.5,491.5 230.5,492.5 230.5,493.5C 230.077,495.781 230.744,497.448 232.5,498.5C 232.241,503.873 233.241,508.873 235.5,513.5C 235.5,513.833 235.5,514.167 235.5,514.5C 235.395,518.258 236.395,521.592 238.5,524.5C 239.758,527.694 240.424,531.027 240.5,534.5C 240.5,537.833 240.5,541.167 240.5,544.5C 241.5,544.5 242.5,544.5 243.5,544.5C 243.5,546.167 243.5,547.833 243.5,549.5C 244.496,554.153 245.496,558.819 246.5,563.5C 246.747,564.713 247.414,565.38 248.5,565.5C 248.5,567.167 248.5,568.833 248.5,570.5C 247.976,574.428 248.976,577.761 251.5,580.5C 251.5,580.833 251.5,581.167 251.5,581.5C 251.171,584.228 251.837,586.562 253.5,588.5C 253.5,589.5 253.5,590.5 253.5,591.5C 253.077,593.781 253.744,595.448 255.5,596.5C 254.839,601.356 255.839,605.69 258.5,609.5C 258.5,609.833 258.5,610.167 258.5,610.5C 258.05,614.988 259.05,618.988 261.5,622.5C 261.5,623.5 261.5,624.5 261.5,625.5C 261.755,629.8 262.755,633.8 264.5,637.5C 264.721,640.067 265.388,642.401 266.5,644.5C 266.5,645.167 266.5,645.833 266.5,646.5C 267.804,653.074 268.804,659.741 269.5,666.5C 270.176,665.398 270.842,664.398 271.5,663.5C 271.5,664.5 271.5,665.5 271.5,666.5C 271.18,669.898 271.513,673.232 272.5,676.5C 273.182,677.243 273.849,677.909 274.5,678.5C 274.5,679.167 274.5,679.833 274.5,680.5C 274.126,684.647 275.126,688.314 277.5,691.5C 277.5,691.833 277.5,692.167 277.5,692.5C 277.077,694.781 277.744,696.448 279.5,697.5C 279.5,699.167 279.5,700.833 279.5,702.5C 279.915,709.602 281.581,716.269 284.5,722.5C 285.841,728.74 286.674,735.074 287,741.5C 287.333,742.167 287.667,742.833 288,743.5C 288.278,742.584 288.778,741.918 289.5,741.5C 289.5,742.167 289.5,742.833 289.5,743.5C 289.5,746.833 289.5,750.167 289.5,753.5C 290.5,753.5 291.5,753.5 292.5,753.5C 292.691,756.983 293.357,760.316 294.5,763.5C 294.05,767.988 295.05,771.988 297.5,775.5C 297.5,776.833 297.5,778.167 297.5,779.5C 297.5,782.167 297.5,784.833 297.5,787.5C 297.414,788.496 297.748,789.329 298.5,790C 430.833,790.667 563.167,790.667 695.5,790C 694.402,789.23 694.402,788.397 695.5,787.5C 696.5,787.5 697.5,787.5 698.5,787.5C 701.877,787.041 705.211,786.374 708.5,785.5C 708.416,781.669 709.083,778.002 710.5,774.5C 710.5,772.833 710.5,771.167 710.5,769.5C 711.5,769.5 712.5,769.5 713.5,769.5C 713.5,766.167 713.5,762.833 713.5,759.5C 713.5,759.167 713.5,758.833 713.5,758.5C 714.924,756.485 715.59,754.152 715.5,751.5C 715.5,750.5 715.5,749.5 715.5,748.5C 717.966,744.982 718.966,740.982 718.5,736.5C 718.5,735.167 718.5,733.833 718.5,732.5C 720.074,730.898 720.741,728.898 720.5,726.5C 720.5,725.167 720.5,723.833 720.5,722.5C 722.605,719.592 723.605,716.258 723.5,712.5C 723.5,711.167 723.5,709.833 723.5,708.5C 724.117,708.611 724.617,708.944 725,709.5C 726.308,702.18 727.474,694.846 728.5,687.5C 728.5,686.5 728.5,685.5 728.5,684.5C 730.876,680.595 731.876,676.261 731.5,671.5C 732.931,671.119 733.764,670.119 734,668.5C 734.558,663.08 735.391,657.747 736.5,652.5C 736.5,650.833 736.5,649.167 736.5,647.5C 736.5,646.833 736.5,646.167 736.5,645.5C 739.169,638.246 740.836,630.58 741.5,622.5C 741.5,621.5 741.5,620.5 741.5,619.5C 742.649,619.209 743.316,618.376 743.5,617C 744.46,610.15 745.46,603.317 746.5,596.5C 746.5,595.5 746.5,594.5 746.5,593.5C 748.966,589.982 749.966,585.982 749.5,581.5C 749.5,580.167 749.5,578.833 749.5,577.5C 751.074,575.898 751.741,573.898 751.5,571.5C 751.5,570.5 751.5,569.5 751.5,568.5C 753.483,565.201 754.483,561.534 754.5,557.5C 754.5,556.5 754.5,555.5 754.5,554.5C 596.17,552.501 437.504,551.835 278.5,552.5C 277.167,552.5 275.833,552.5 274.5,552.5C 274.5,551.5 274.5,550.5 274.5,549.5C 270.94,548.602 268.773,546.269 268,542.5C 266.95,537.552 266.45,532.552 266.5,527.5C 266.5,526.833 266.833,526.5 267.5,526.5C 269.264,525.674 270.598,524.341 271.5,522.5C 272.401,520.273 274.067,519.273 276.5,519.5C 438.5,519.5 600.5,519.5 762.5,519.5C 763.425,515.21 764.091,510.876 764.5,506.5C 764.5,505.5 764.5,504.5 764.5,503.5C 766.874,500.314 767.874,496.647 767.5,492.5C 767.5,490.5 767.5,488.5 767.5,486.5C 768.997,484.71 769.664,482.544 769.5,480C 769.664,477.456 768.997,475.29 767.5,473.5C 767.5,473.167 767.5,472.833 767.5,472.5C 767.741,469.966 766.741,468.3 764.5,467.5C 764.5,466.5 764.5,465.5 764.5,464.5C 764.52,462.857 763.853,461.524 762.5,460.5C 759.914,459.52 757.247,459.187 754.5,459.5C 754.423,458.25 753.756,457.417 752.5,457C 750.527,456.505 748.527,456.338 746.5,456.5C 745.058,455.18 744.392,453.514 744.5,451.5C 742.678,451.169 741.011,450.502 739.5,449.5C 738.558,444.195 738.391,438.861 739,433.5C 739.366,431.548 740.199,429.882 741.5,428.5C 742.5,428.5 743.5,428.5 744.5,428.5C 745.394,424.424 747.394,423.757 750.5,426.5C 751.95,425.15 752.617,423.484 752.5,421.5C 758.167,421.5 763.833,421.5 769.5,421.5C 772.025,422.64 774.692,423.307 777.5,423.5C 778.167,425.5 778.833,427.5 779.5,429.5C 781.857,429.337 784.19,429.503 786.5,430C 787.38,431.356 787.714,432.856 787.5,434.5C 789.858,434.253 791.858,434.919 793.5,436.5C 793.738,439.069 795.071,440.735 797.5,441.5C 797.653,446.102 798.653,450.436 800.5,454.5C 801.5,454.5 802.5,454.5 803.5,454.5C 804.697,461.177 805.863,467.844 807,474.5C 807.278,473.584 807.778,472.918 808.5,472.5C 809.644,476.648 809.644,480.648 808.5,484.5C 807.551,488.657 806.884,492.99 806.5,497.5C 806.5,497.833 806.5,498.167 806.5,498.5C 805.057,502.615 804.057,506.948 803.5,511.5C 803.5,513.5 803.5,515.5 803.5,517.5C 802.542,517.953 801.708,518.619 801,519.5C 800.501,523.486 800.334,527.486 800.5,531.5C 798.656,533.279 797.99,535.612 798.5,538.5C 798.5,540.5 798.5,542.5 798.5,544.5C 796.023,546.416 795.023,549.083 795.5,552.5C 794.5,552.5 793.5,552.5 792.5,552.5C 792.336,559.559 791.67,566.559 790.5,573.5C 790.5,575.167 790.5,576.833 790.5,578.5C 789.5,578.5 788.5,578.5 787.5,578.5C 787.666,583.179 787.499,587.845 787,592.5C 785.984,591.366 785.317,591.699 785,593.5C 784.355,598.887 783.522,604.22 782.5,609.5C 782.67,615.967 782.004,622.3 780.5,628.5C 780.5,629.167 780.5,629.833 780.5,630.5C 778.38,634.804 777.38,639.471 777.5,644.5C 777.5,645.5 777.5,646.5 777.5,647.5C 775.72,648.99 775.054,650.99 775.5,653.5C 775.5,654.167 775.5,654.833 775.5,655.5C 774.336,659.011 773.336,662.677 772.5,666.5C 772.5,667.5 772.5,668.5 772.5,669.5C 771.778,669.918 771.278,670.584 771,671.5C 770.503,674.146 770.336,676.813 770.5,679.5C 768.425,683.475 767.425,687.808 767.5,692.5C 767.5,694.167 767.5,695.833 767.5,697.5C 766.849,698.091 766.182,698.757 765.5,699.5C 764.513,702.768 764.18,706.102 764.5,709.5C 764.5,709.833 764.5,710.167 764.5,710.5C 763.388,712.599 762.721,714.933 762.5,717.5C 762.5,718.5 762.5,719.5 762.5,720.5C 760.425,724.474 759.425,728.808 759.5,733.5C 759.5,735.167 759.5,736.833 759.5,738.5C 757.692,739.918 757.025,741.918 757.5,744.5C 757.5,745.5 757.5,746.5 757.5,747.5C 755.432,750.763 754.432,754.43 754.5,758.5C 754.5,760.5 754.5,762.5 754.5,764.5C 753.5,764.5 752.5,764.5 751.5,764.5C 751.5,768.833 751.5,773.167 751.5,777.5C 749.837,779.438 749.171,781.772 749.5,784.5C 749.5,785.5 749.5,786.5 749.5,787.5C 748.5,787.5 747.5,787.5 746.5,787.5C 746.5,790.833 746.5,794.167 746.5,797.5C 745.5,797.5 744.5,797.5 743.5,797.5C 742.36,800.025 741.693,802.692 741.5,805.5C 738.69,806.48 736.024,807.813 733.5,809.5C 734.813,811.518 734.147,812.685 731.5,813C 732.756,813.417 733.423,814.25 733.5,815.5C 732.738,817.262 731.404,818.262 729.5,818.5C 727.5,819.167 725.5,819.833 723.5,820.5C 723.5,821.5 723.5,822.5 723.5,823.5C 722.833,823.5 722.167,823.5 721.5,823.5C 718.654,823.552 716.32,824.552 714.5,826.5C 711.572,826.565 708.905,827.232 706.5,828.5C 574.167,828.5 441.833,828.5 309.5,828.5C 309.263,829.791 309.596,830.791 310.5,831.5C 310.5,832.5 310.5,833.5 310.5,834.5C 310.395,838.258 311.395,841.592 313.5,844.5C 313.5,845.167 313.5,845.833 313.5,846.5C 312.99,849.388 313.656,851.721 315.5,853.5C 315.5,854.5 315.5,855.5 315.5,856.5C 317.085,861.678 317.752,867.012 317.5,872.5C 318.5,872.5 319.5,872.5 320.5,872.5C 320.259,875.034 321.259,876.7 323.5,877.5C 323.5,878.5 323.5,879.5 323.5,880.5C 323.5,881.5 323.5,882.5 323.5,883.5C 327.5,883.5 331.5,883.5 335.5,883.5C 471.694,884.172 608.027,884.838 744.5,885.5C 745.167,885.5 745.833,885.5 746.5,885.5C 746.81,887.144 747.81,888.144 749.5,888.5C 750.865,890.591 751.532,892.924 751.5,895.5C 752.5,895.5 753.5,895.5 754.5,895.5C 754.5,897.833 754.5,900.167 754.5,902.5C 753.745,907.193 752.412,911.86 750.5,916.5C 749.476,917.853 748.143,918.52 746.5,918.5C 746.5,919.5 746.5,920.5 746.5,921.5C 605.568,923.484 464.568,924.15 323.5,923.5C 317.656,920.445 311.322,918.112 304.5,916.5C 303.508,916.672 302.842,916.338 302.5,915.5C 301.218,913.82 299.551,912.487 297.5,911.5C 296.761,911.631 296.094,911.464 295.5,911C 294.252,909.6 293.252,908.1 292.5,906.5C 292.271,904.567 291.438,902.9 290,901.5C 289.329,900.748 288.496,900.414 287.5,900.5C 287.25,898.326 286.25,896.659 284.5,895.5C 284.5,895.167 284.5,894.833 284.5,894.5C 284.008,892.181 283.008,890.181 281.5,888.5C 281.5,888.167 281.5,887.833 281.5,887.5C 281.741,885.102 281.074,883.102 279.5,881.5C 279.5,880.833 279.5,880.167 279.5,879.5C 278.511,872.872 277.844,866.205 277.5,859.5C 276.5,859.5 275.5,859.5 274.5,859.5C 274.68,855.714 273.68,852.381 271.5,849.5C 271.5,848.167 271.5,846.833 271.5,845.5C 270.528,839.808 269.361,834.141 268,828.5C 267.617,827.944 267.117,827.611 266.5,827.5C 266.5,826.167 266.5,824.833 266.5,823.5C 265.831,817.113 264.164,811.113 261.5,805.5C 261.5,804.5 261.5,803.5 261.5,802.5C 261.712,798.655 260.712,795.321 258.5,792.5C 258.5,791.833 258.5,791.167 258.5,790.5C 258.975,787.918 258.308,785.918 256.5,784.5C 256.5,784.167 256.5,783.833 256.5,783.5C 256.692,779.098 255.692,775.098 253.5,771.5C 253.5,770.833 253.5,770.167 253.5,769.5C 252.639,762.545 250.973,755.879 248.5,749.5C 248.5,748.833 248.5,748.167 248.5,747.5C 248.615,743.112 247.615,739.112 245.5,735.5C 245.829,732.772 245.163,730.438 243.5,728.5C 243.5,728.167 243.5,727.833 243.5,727.5C 243.663,725.143 243.497,722.81 243,720.5C 242.764,718.881 241.931,717.881 240.5,717.5C 240.5,716.167 240.5,714.833 240.5,713.5C 240.279,710.933 239.612,708.599 238.5,706.5C 237.549,705.081 237.216,703.415 237.5,701.5C 237.741,699.102 237.074,697.102 235.5,695.5C 235.5,694.167 235.5,692.833 235.5,691.5C 235.79,687.676 234.79,684.342 232.5,681.5C 232.829,678.772 232.163,676.438 230.5,674.5C 230.5,673.5 230.5,672.5 230.5,671.5C 230.664,668.813 230.497,666.146 230,663.5C 229.292,662.619 228.458,661.953 227.5,661.5C 227.5,660.833 227.5,660.167 227.5,659.5C 227.662,657.473 227.495,655.473 227,653.5C 226.617,652.944 226.117,652.611 225.5,652.5C 225.5,652.167 225.5,651.833 225.5,651.5C 225.874,647.353 224.874,643.686 222.5,640.5C 222.5,639.5 222.5,638.5 222.5,637.5C 223.01,634.612 222.344,632.279 220.5,630.5C 220.57,622.828 218.903,615.828 215.5,609.5C 215.665,605.818 215.499,602.152 215,598.5C 214.583,597.244 213.75,596.577 212.5,596.5C 212.5,596.167 212.5,595.833 212.5,595.5C 212.5,592.5 212.5,589.5 212.5,586.5C 211.5,586.5 210.5,586.5 209.5,586.5C 209.5,584.833 209.5,583.167 209.5,581.5C 209.279,578.933 208.612,576.599 207.5,574.5C 207.056,566.114 206.056,557.781 204.5,549.5C 203.614,550.325 203.281,551.325 203.5,552.5C 202.833,551.5 202.167,550.5 201.5,549.5C 201.5,549.167 201.5,548.833 201.5,548.5C 201.741,546.102 201.074,544.102 199.5,542.5C 199.5,541.5 199.5,540.5 199.5,539.5C 199.568,535.43 198.568,531.763 196.5,528.5C 196.5,528.167 196.5,527.833 196.5,527.5C 196.975,524.918 196.308,522.918 194.5,521.5C 194.5,520.833 194.5,520.167 194.5,519.5C 194.874,515.353 193.874,511.686 191.5,508.5C 191.5,507.5 191.5,506.5 191.5,505.5C 192.01,502.612 191.344,500.279 189.5,498.5C 189.415,491.565 188.415,484.899 186.5,478.5C 186.158,477.662 185.492,477.328 184.5,477.5C 184.5,473.167 184.5,468.833 184.5,464.5C 183.5,464.5 182.5,464.5 181.5,464.5C 181.5,464.167 181.5,463.833 181.5,463.5C 181.665,460.482 181.498,457.482 181,454.5C 180.667,455.167 180.333,455.833 180,456.5C 179.722,455.584 179.222,454.918 178.5,454.5C 178.5,453.167 178.5,451.833 178.5,450.5C 177.663,445.482 176.663,440.482 175.5,435.5C 175.253,434.287 174.586,433.62 173.5,433.5C 173.5,431.833 173.5,430.167 173.5,428.5C 173.605,424.742 172.605,421.408 170.5,418.5C 170.5,417.833 170.5,417.167 170.5,416.5C 170.405,414.214 169.738,412.214 168.5,410.5C 168.5,409.5 168.5,408.5 168.5,407.5C 168.712,403.655 167.712,400.321 165.5,397.5C 165.5,396.833 165.5,396.167 165.5,395.5C 165.279,392.933 164.612,390.599 163.5,388.5C 163.969,385.607 162.969,383.607 160.5,382.5C 160.573,380.973 159.906,379.973 158.5,379.5C 158.5,378.5 158.5,377.5 158.5,376.5C 130.328,376.831 102.328,376.498 74.5,375.5C 93.8362,375.667 113.17,375.5 132.5,375C 113.5,374.667 94.5,374.333 75.5,374C 66.0667,373.868 56.7333,373.035 47.5,371.5C 45.1,369.704 43.4333,367.37 42.5,364.5C 42.0089,357.654 42.6755,350.988 44.5,344.5C 45.4735,341.865 47.1402,339.865 49.5,338.5C 51.2161,338.371 52.8828,338.038 54.5,337.5C 89.1597,336.455 123.826,336.288 158.5,337C 161.372,337.315 164.205,337.815 167,338.5C 172.031,340.528 176.864,342.861 181.5,345.5 Z"/></g>
<g><path style="opacity:0.922" fill="#8ee1da" d="M 186.5,349.5 C 188.833,350.5 190.5,352.167 191.5,354.5C 190.504,354.586 189.671,354.252 189,353.5C 187.915,352.264 187.082,350.931 186.5,349.5 Z"/></g>
<g><path style="opacity:1" fill="#94e4dd" d="M 44.5,344.5 C 42.6755,350.988 42.0089,357.654 42.5,364.5C 40.0309,358.713 39.8642,352.713 42,346.5C 42.7083,345.619 43.5416,344.953 44.5,344.5 Z"/></g>
<g><path style="opacity:1" fill="#79e1d7" d="M 196.5,361.5 C 197.458,361.953 198.292,362.619 199,363.5C 201.132,368.729 202.965,374.063 204.5,379.5C 203.276,376.928 201.609,374.595 199.5,372.5C 198.188,368.889 197.188,365.223 196.5,361.5 Z"/></g>
<g><path style="opacity:1" fill="#3fd2c3" d="M 47.5,371.5 C 56.7333,373.035 66.0667,373.868 75.5,374C 94.5,374.333 113.5,374.667 132.5,375C 113.17,375.5 93.8362,375.667 74.5,375.5C 67.1667,375.5 59.8333,375.5 52.5,375.5C 50.3384,374.872 48.6718,373.539 47.5,371.5 Z"/></g>
<g><path style="opacity:0.545" fill="#9fede7" d="M 52.5,375.5 C 59.8333,375.5 67.1667,375.5 74.5,375.5C 102.328,376.498 130.328,376.831 158.5,376.5C 158.5,377.5 158.5,378.5 158.5,379.5C 156.228,378.059 153.895,377.726 151.5,378.5C 121.542,377.674 91.542,377.174 61.5,377C 58.3054,376.819 55.3054,376.319 52.5,375.5 Z"/></g>
<g><path style="opacity:0.922" fill="#b5eae8" d="M 160.5,382.5 C 162.969,383.607 163.969,385.607 163.5,388.5C 162.508,386.544 161.508,384.544 160.5,382.5 Z"/></g>
<g><path style="opacity:1" fill="#a5deda" d="M 204.5,382.5 C 205.931,383.78 206.598,385.447 206.5,387.5C 204.744,386.448 204.077,384.781 204.5,382.5 Z"/></g>
<g><path style="opacity:0.545" fill="#aaf1ee" d="M 163.5,388.5 C 164.612,390.599 165.279,392.933 165.5,395.5C 164.883,395.389 164.383,395.056 164,394.5C 163.505,392.527 163.338,390.527 163.5,388.5 Z"/></g>
<g><path style="opacity:0.922" fill="#95e8e1" d="M 206.5,387.5 C 207.401,391.737 208.401,396.07 209.5,400.5C 206.839,396.69 205.839,392.356 206.5,387.5 Z"/></g>
<g><path style="opacity:1" fill="#9fe3de" d="M 165.5,397.5 C 167.712,400.321 168.712,403.655 168.5,407.5C 166.32,404.619 165.32,401.286 165.5,397.5 Z"/></g>
<g><path style="opacity:0.922" fill="#aaeae7" d="M 209.5,402.5 C 211.318,405.844 212.318,409.511 212.5,413.5C 210.517,410.201 209.517,406.534 209.5,402.5 Z"/></g>
<g><path style="opacity:0.545" fill="#b9f5f4" d="M 168.5,410.5 C 169.738,412.214 170.405,414.214 170.5,416.5C 168.72,415.01 168.054,413.01 168.5,410.5 Z"/></g>
<g><path style="opacity:0.545" fill="#bdf5f4" d="M 762.5,418.5 C 765.228,418.171 767.562,418.837 769.5,420.5C 766.933,420.279 764.599,419.612 762.5,418.5 Z"/></g>
<g><path style="opacity:0.545" fill="#99e5de" d="M 769.5,421.5 C 769.5,421.167 769.5,420.833 769.5,420.5C 772.649,420.415 775.316,421.415 777.5,423.5C 774.692,423.307 772.025,422.64 769.5,421.5 Z"/></g>
<g><path style="opacity:0.922" fill="#9ae8e2" d="M 751.5,420.5 C 749.544,421.492 747.544,422.492 745.5,423.5C 746.687,421.025 748.687,420.025 751.5,420.5 Z"/></g>
<g><path style="opacity:1" fill="#51d9cb" d="M 762.5,418.5 C 764.599,419.612 766.933,420.279 769.5,420.5C 769.5,420.833 769.5,421.167 769.5,421.5C 763.833,421.5 758.167,421.5 752.5,421.5C 752.617,423.484 751.95,425.15 750.5,426.5C 747.394,423.757 745.394,424.424 744.5,428.5C 743.5,428.5 742.5,428.5 741.5,428.5C 741.5,428.167 741.5,427.833 741.5,427.5C 741.833,425.167 743.167,423.833 745.5,423.5C 747.544,422.492 749.544,421.492 751.5,420.5C 753.3,418.95 755.467,417.95 758,417.5C 759.356,418.38 760.856,418.714 762.5,418.5 Z"/></g>
<g><path style="opacity:0.545" fill="#a7e8e5" d="M 170.5,418.5 C 172.605,421.408 173.605,424.742 173.5,428.5C 171.59,425.548 170.59,422.214 170.5,418.5 Z"/></g>
<g><path style="opacity:0.545" fill="#9aebe4" d="M 212.5,416.5 C 214.695,422.645 216.362,428.978 217.5,435.5C 214.716,429.633 213.05,423.3 212.5,416.5 Z"/></g>
<g><path style="opacity:1" fill="#6eded2" d="M 777.5,423.5 C 778.552,423.351 779.552,423.517 780.5,424C 782.305,426.403 784.638,428.07 787.5,429C 789.768,431.418 791.768,433.918 793.5,436.5C 791.858,434.919 789.858,434.253 787.5,434.5C 787.714,432.856 787.38,431.356 786.5,430C 784.19,429.503 781.857,429.337 779.5,429.5C 778.833,427.5 778.167,425.5 777.5,423.5 Z"/></g>
<g><path style="opacity:1" fill="#8ee3de" d="M 741.5,427.5 C 741.5,427.833 741.5,428.167 741.5,428.5C 740.199,429.882 739.366,431.548 739,433.5C 738.391,438.861 738.558,444.195 739.5,449.5C 736.669,444.62 735.836,439.287 737,433.5C 737.881,430.986 739.381,428.986 741.5,427.5 Z"/></g>
<g><path style="opacity:0.545" fill="#a3e4df" d="M 793.5,436.5 C 795.379,436.393 795.712,436.893 794.5,438C 796.056,438.72 797.056,439.887 797.5,441.5C 795.071,440.735 793.738,439.069 793.5,436.5 Z"/></g>
<g><path style="opacity:0.545" fill="#a9eae6" d="M 173.5,433.5 C 174.586,433.62 175.253,434.287 175.5,435.5C 176.663,440.482 177.663,445.482 178.5,450.5C 176.465,445.031 174.798,439.365 173.5,433.5 Z"/></g>
<g><path style="opacity:0.545" fill="#aae8e5" d="M 217.5,437.5 C 219.072,440.215 220.072,443.215 220.5,446.5C 218.132,444.044 217.132,441.044 217.5,437.5 Z"/></g>
<g><path style="opacity:1" fill="#68ded2" d="M 797.5,441.5 C 800.639,445.224 802.639,449.557 803.5,454.5C 802.5,454.5 801.5,454.5 800.5,454.5C 798.653,450.436 797.653,446.102 797.5,441.5 Z"/></g>
<g><path style="opacity:1" fill="#aee4e3" d="M 220.5,449.5 C 221.931,450.78 222.598,452.447 222.5,454.5C 220.744,453.448 220.077,451.781 220.5,449.5 Z"/></g>
<g><path style="opacity:1" fill="#7dddd5" d="M 739.5,449.5 C 741.011,450.502 742.678,451.169 744.5,451.5C 744.392,453.514 745.058,455.18 746.5,456.5C 742.833,455.5 740.5,453.167 739.5,449.5 Z"/></g>
<g><path style="opacity:0.545" fill="#b2f1ed" d="M 1051.5,457.5 C 1063.99,456.34 1076.66,456.173 1089.5,457C 1094.73,457.296 1099.73,458.129 1104.5,459.5C 1086.88,457.816 1069.21,457.149 1051.5,457.5 Z"/></g>
<g><path style="opacity:0.961" fill="#8edbd5" d="M 178.5,454.5 C 179.222,454.918 179.722,455.584 180,456.5C 180.333,455.833 180.667,455.167 181,454.5C 181.498,457.482 181.665,460.482 181.5,463.5C 180.265,460.67 179.265,457.67 178.5,454.5 Z"/></g>
<g><path style="opacity:1" fill="#7ee3d9" d="M 746.5,456.5 C 748.527,456.338 750.527,456.505 752.5,457C 753.756,457.417 754.423,458.25 754.5,459.5C 751.169,459.982 748.503,458.982 746.5,456.5 Z"/></g>
<g><path style="opacity:0.961" fill="#a8dfdc" d="M 1048.5,457.5 C 1046.83,458.167 1045.17,458.833 1043.5,459.5C 1041.5,459.5 1039.5,459.5 1037.5,459.5C 1040.88,457.918 1044.54,457.251 1048.5,457.5 Z"/></g>
<g><path style="opacity:1" fill="#53d6c9" d="M 1048.5,457.5 C 1049.5,457.5 1050.5,457.5 1051.5,457.5C 1069.21,457.149 1086.88,457.816 1104.5,459.5C 1106.83,459.5 1109.17,459.5 1111.5,459.5C 1112.83,460.5 1114.17,461.5 1115.5,462.5C 1109.22,461.453 1102.88,460.62 1096.5,460C 1078.84,459.5 1061.17,459.333 1043.5,459.5C 1045.17,458.833 1046.83,458.167 1048.5,457.5 Z"/></g>
<g><path style="opacity:1" fill="#79dbd2" d="M 754.5,459.5 C 757.247,459.187 759.914,459.52 762.5,460.5C 763.853,461.524 764.52,462.857 764.5,464.5C 761.173,462.834 757.839,461.167 754.5,459.5 Z"/></g>
<g><path style="opacity:1" fill="#a9e9e6" d="M 1030.5,459.5 C 1026.23,461.755 1021.57,462.755 1016.5,462.5C 1020.97,461.133 1025.64,460.133 1030.5,459.5 Z"/></g>
<g><path style="opacity:1" fill="#28dbc8" d="M 1030.5,459.5 C 1032.83,459.5 1035.17,459.5 1037.5,459.5C 1039.5,459.5 1041.5,459.5 1043.5,459.5C 1061.17,459.333 1078.84,459.5 1096.5,460C 1102.88,460.62 1109.22,461.453 1115.5,462.5C 1118.17,462.5 1120.83,462.5 1123.5,462.5C 1124.17,462.5 1124.83,462.5 1125.5,462.5C 1126.99,464.28 1128.99,464.946 1131.5,464.5C 1132.17,464.5 1132.83,464.5 1133.5,464.5C 1136.22,466.072 1139.22,467.072 1142.5,467.5C 1142.58,468.75 1143.24,469.583 1144.5,470C 1148.98,470.266 1153.31,471.099 1157.5,472.5C 1158.5,472.5 1159.5,472.5 1160.5,472.5C 1160.58,473.75 1161.24,474.583 1162.5,475C 1164.13,475.494 1165.8,475.66 1167.5,475.5C 1167.5,476.5 1167.5,477.5 1167.5,478.5C 1171.25,478.751 1174.92,479.417 1178.5,480.5C 1178.37,481.376 1178.7,482.043 1179.5,482.5C 1182.19,483.513 1184.85,484.513 1187.5,485.5C 1187.83,485.5 1188.17,485.5 1188.5,485.5C 1188.37,486.376 1188.7,487.043 1189.5,487.5C 1192.19,488.513 1194.85,489.513 1197.5,490.5C 1197.83,490.5 1198.17,490.5 1198.5,490.5C 1200.32,492.012 1201.32,494.012 1201.5,496.5C 1204.44,497.406 1207.44,498.072 1210.5,498.5C 1210.83,498.5 1211.17,498.5 1211.5,498.5C 1212.18,502.322 1214.51,503.989 1218.5,503.5C 1219.17,503.5 1219.5,503.833 1219.5,504.5C 1220.5,506.011 1221.17,507.678 1221.5,509.5C 1224.02,510.64 1226.69,511.307 1229.5,511.5C 1230.76,515.347 1233.42,517.68 1237.5,518.5C 1238.17,520.5 1238.83,522.5 1239.5,524.5C 1240.5,524.5 1241.5,524.5 1242.5,524.5C 1243,527.859 1244.66,529.359 1247.5,529C 1249.49,531.322 1251.83,533.155 1254.5,534.5C 1257.61,536.694 1260.27,539.36 1262.5,542.5C 1263.04,544.117 1263.37,545.784 1263.5,547.5C 1265.32,547.831 1266.99,548.498 1268.5,549.5C 1268.28,550.675 1268.61,551.675 1269.5,552.5C 1270.64,553.826 1271.98,554.826 1273.5,555.5C 1275.89,557.258 1277.55,559.591 1278.5,562.5C 1278.73,564.433 1279.56,566.1 1281,567.5C 1281.67,568.252 1282.5,568.586 1283.5,568.5C 1283.11,571.89 1284.45,574.223 1287.5,575.5C 1288.17,575.5 1288.5,575.833 1288.5,576.5C 1288.5,578.833 1288.5,581.167 1288.5,583.5C 1289.5,583.5 1290.5,583.5 1291.5,583.5C 1292.04,585.58 1292.88,587.58 1294,589.5C 1294.67,590.252 1295.5,590.586 1296.5,590.5C 1295.8,594.8 1297.47,597.466 1301.5,598.5C 1301.5,600.5 1301.5,602.5 1301.5,604.5C 1302.5,604.5 1303.5,604.5 1304.5,604.5C 1304.5,605.167 1304.5,605.833 1304.5,606.5C 1304.08,610.936 1305.75,614.269 1309.5,616.5C 1309.5,616.833 1309.5,617.167 1309.5,617.5C 1309.5,619.167 1309.5,620.833 1309.5,622.5C 1310.5,622.5 1311.5,622.5 1312.5,622.5C 1313.64,625.004 1314.31,627.67 1314.5,630.5C 1314.18,633.481 1315.18,635.815 1317.5,637.5C 1318.37,640.112 1319.04,642.779 1319.5,645.5C 1319.5,648.833 1319.5,652.167 1319.5,655.5C 1320.5,655.5 1321.5,655.5 1322.5,655.5C 1322.5,656.833 1322.5,658.167 1322.5,659.5C 1323.01,664.391 1324.01,669.058 1325.5,673.5C 1325.11,676.553 1325.78,679.22 1327.5,681.5C 1327.5,683.833 1327.5,686.167 1327.5,688.5C 1327.5,706.5 1327.5,724.5 1327.5,742.5C 1326.88,742.611 1326.38,742.944 1326,743.5C 1325.44,752.951 1324.1,762.284 1322,771.5C 1321.59,771.957 1321.09,772.291 1320.5,772.5C 1319.68,778.876 1318.68,785.209 1317.5,791.5C 1317.77,793.099 1317.43,794.432 1316.5,795.5C 1314.74,796.552 1314.08,798.219 1314.5,800.5C 1314.5,801.5 1314.5,802.5 1314.5,803.5C 1312.95,803.821 1312.29,804.821 1312.5,806.5C 1312.5,807.167 1312.5,807.833 1312.5,808.5C 1310.26,809.3 1309.26,810.966 1309.5,813.5C 1309.5,814.167 1309.5,814.833 1309.5,815.5C 1308.09,815.973 1307.43,816.973 1307.5,818.5C 1306.26,820.649 1305.26,822.982 1304.5,825.5C 1304.74,826.791 1304.4,827.791 1303.5,828.5C 1300.93,830.027 1299.6,832.361 1299.5,835.5C 1299.5,835.833 1299.5,836.167 1299.5,836.5C 1295.47,837.506 1293.8,840.173 1294.5,844.5C 1292.72,845.67 1291.72,847.336 1291.5,849.5C 1289.59,850.486 1288.59,852.152 1288.5,854.5C 1287.5,854.5 1286.5,854.5 1285.5,854.5C 1284.36,857.025 1283.69,859.692 1283.5,862.5C 1279.68,863.18 1278.01,865.513 1278.5,869.5C 1278.5,870.167 1278.17,870.5 1277.5,870.5C 1275.07,871.265 1273.74,872.931 1273.5,875.5C 1270.5,875.833 1268.83,877.5 1268.5,880.5C 1267.5,880.5 1266.5,880.5 1265.5,880.5C 1265.5,882.167 1265.5,883.833 1265.5,885.5C 1262.5,885.833 1260.83,887.5 1260.5,890.5C 1259.5,890.5 1258.5,890.5 1257.5,890.5C 1257.17,893.5 1255.5,895.167 1252.5,895.5C 1252.17,898.5 1250.5,900.167 1247.5,900.5C 1247.5,901.833 1247.5,903.167 1247.5,904.5C 1246.17,904.5 1245.5,905.167 1245.5,906.5C 1243.82,906.285 1242.82,906.952 1242.5,908.5C 1239.92,911.688 1236.92,914.355 1233.5,916.5C 1232.17,916.5 1230.83,916.5 1229.5,916.5C 1229.5,917.5 1229.5,918.5 1229.5,919.5C 1228.17,919.5 1227.5,920.167 1227.5,921.5C 1225.5,921.5 1223.5,921.5 1221.5,921.5C 1221.17,924.5 1219.5,926.167 1216.5,926.5C 1216.5,927.5 1216.5,928.5 1216.5,929.5C 1216.17,929.5 1215.83,929.5 1215.5,929.5C 1213.17,930.167 1210.83,930.833 1208.5,931.5C 1208.5,932.5 1208.5,933.5 1208.5,934.5C 1208.16,935.338 1207.49,935.672 1206.5,935.5C 1205.29,935.932 1204.29,936.599 1203.5,937.5C 1203.16,938.338 1202.49,938.672 1201.5,938.5C 1198.9,939.265 1196.24,939.599 1193.5,939.5C 1193.5,940.5 1193.5,941.5 1193.5,942.5C 1187.82,943.587 1182.48,945.587 1177.5,948.5C 1176.15,949.524 1175.48,950.857 1175.5,952.5C 1172.83,952.5 1170.17,952.5 1167.5,952.5C 1167.5,953.5 1167.5,954.5 1167.5,955.5C 1165.45,955.402 1163.78,956.069 1162.5,957.5C 1159.86,959.31 1156.86,960.31 1153.5,960.5C 1151.52,960.157 1150.18,960.824 1149.5,962.5C 1142.38,962.928 1135.38,964.095 1128.5,966C 1127.24,966.417 1126.58,967.25 1126.5,968.5C 1125.83,968.5 1125.17,968.5 1124.5,968.5C 1121.17,968.215 1118.17,968.882 1115.5,970.5C 1112.83,970.5 1110.17,970.5 1107.5,970.5C 1094.36,971.424 1081.19,972.091 1068,972.5C 1055.66,972.711 1044.16,972.044 1033.5,970.5C 1030.5,970.5 1027.5,970.5 1024.5,970.5C 1022.09,969.232 1019.43,968.565 1016.5,968.5C 1015.83,968.5 1015.17,968.5 1014.5,968.5C 1011.42,965.919 1007.75,964.919 1003.5,965.5C 1002.83,965.5 1002.17,965.5 1001.5,965.5C 1001.5,965.167 1001.5,964.833 1001.5,964.5C 1002.04,964.44 1002.38,964.107 1002.5,963.5C 999.914,962.52 997.247,962.187 994.5,962.5C 994.5,961.5 994.5,960.5 994.5,959.5C 989.474,958.993 984.474,958.326 979.5,957.5C 979.5,956.5 979.5,955.5 979.5,954.5C 974.681,954.648 970.015,953.982 965.5,952.5C 963.203,949.812 960.203,948.146 956.5,947.5C 956.167,947.5 955.833,947.5 955.5,947.5C 955.611,946.883 955.944,946.383 956.5,946C 951.85,942.418 946.516,940.251 940.5,939.5C 940.179,937.952 939.179,937.285 937.5,937.5C 936.508,937.672 935.842,937.338 935.5,936.5C 935.179,934.952 934.179,934.285 932.5,934.5C 930.566,933.89 928.899,932.89 927.5,931.5C 926.498,929.989 925.831,928.322 925.5,926.5C 922.892,926.6 920.558,925.933 918.5,924.5C 918.167,924.5 917.833,924.5 917.5,924.5C 916.5,923.167 915.5,921.833 914.5,920.5C 914.279,919.265 913.612,918.265 912.5,917.5C 913.167,916.833 913.833,916.167 914.5,915.5C 914.167,915.167 913.833,914.833 913.5,914.5C 912.15,915.95 910.484,916.617 908.5,916.5C 908.5,915.5 908.5,914.5 908.5,913.5C 907.022,913.762 905.689,913.429 904.5,912.5C 901.647,909.372 898.647,906.372 895.5,903.5C 894.614,902.675 894.281,901.675 894.5,900.5C 892.5,899.833 890.5,899.167 888.5,898.5C 887.833,896.5 887.167,894.5 886.5,892.5C 884.079,892.122 881.746,891.455 879.5,890.5C 878.662,890.158 878.328,889.492 878.5,888.5C 877.833,886.5 877.167,884.5 876.5,882.5C 874.857,882.52 873.524,881.853 872.5,880.5C 871.727,878.187 871.06,875.854 870.5,873.5C 865.145,872.815 862.812,869.815 863.5,864.5C 861.5,863.833 859.5,863.167 857.5,862.5C 857.068,861.29 856.401,860.29 855.5,859.5C 855.262,857.596 854.262,856.262 852.5,855.5C 851.449,854.778 850.782,853.778 850.5,852.5C 850.741,849.966 849.741,848.3 847.5,847.5C 846.449,842.835 844.782,838.502 842.5,834.5C 841.5,834.5 840.5,834.5 839.5,834.5C 839.5,833.833 839.5,833.167 839.5,832.5C 839.545,829.923 838.545,827.923 836.5,826.5C 836.276,822.821 835.942,819.154 835.5,815.5C 834.5,815.5 833.5,815.5 832.5,815.5C 832.5,813.833 832.5,812.167 832.5,810.5C 831.5,810.5 830.5,810.5 829.5,810.5C 829.923,808.219 829.256,806.552 827.5,805.5C 826.566,804.432 826.232,803.099 826.5,801.5C 826.88,799.302 826.213,797.635 824.5,796.5C 824.31,793.145 823.31,790.145 821.5,787.5C 821.5,786.5 821.5,785.5 821.5,784.5C 820.632,780.686 819.632,777.019 818.5,773.5C 818.741,771.102 818.074,769.102 816.5,767.5C 816.5,766.167 816.5,764.833 816.5,763.5C 816.351,758.425 815.685,753.425 814.5,748.5C 814.258,723.486 814.591,698.486 815.5,673.5C 816.451,672.081 816.784,670.415 816.5,668.5C 816.5,667.5 816.5,666.5 816.5,665.5C 820.843,655.801 823.51,645.468 824.5,634.5C 825.117,634.611 825.617,634.944 826,635.5C 826.495,633.527 826.662,631.527 826.5,629.5C 828.856,627.443 829.856,624.776 829.5,621.5C 829.5,620.833 829.5,620.167 829.5,619.5C 831.891,617.065 833.558,614.065 834.5,610.5C 834.5,609.833 834.5,609.167 834.5,608.5C 836.115,606.626 838.115,605.292 840.5,604.5C 841.373,600.879 842.039,597.212 842.5,593.5C 843.5,593.5 844.5,593.5 845.5,593.5C 846.406,590.564 847.072,587.564 847.5,584.5C 847.5,584.167 847.5,583.833 847.5,583.5C 848.5,583.5 849.5,583.5 850.5,583.5C 850.878,581.079 851.545,578.746 852.5,576.5C 853.647,573.546 855.314,570.88 857.5,568.5C 859.053,566.615 861.053,565.615 863.5,565.5C 863.5,563.833 863.5,562.167 863.5,560.5C 864.222,560.918 864.722,561.584 865,562.5C 866.368,559.814 867.701,557.147 869,554.5C 870.11,552.963 871.61,552.297 873.5,552.5C 873.5,550.833 873.5,549.167 873.5,547.5C 876.144,546.856 877.811,545.189 878.5,542.5C 878.285,540.821 878.952,539.821 880.5,539.5C 881.496,539.414 882.329,539.748 883,540.5C 884.819,537.194 887.319,534.527 890.5,532.5C 891.386,531.675 891.719,530.675 891.5,529.5C 892.675,529.719 893.675,529.386 894.5,528.5C 895.989,526.005 897.656,523.672 899.5,521.5C 901.167,521.5 902.833,521.5 904.5,521.5C 904.5,519.833 904.5,518.167 904.5,516.5C 905.67,514.721 907.336,513.721 909.5,513.5C 914.025,512.248 917.358,509.581 919.5,505.5C 919.821,503.952 920.821,503.285 922.5,503.5C 924.882,501.954 927.549,501.287 930.5,501.5C 930.281,500.325 930.614,499.325 931.5,498.5C 933.773,497.349 936.106,496.349 938.5,495.5C 938.137,494.817 937.804,494.15 937.5,493.5C 940.034,493.741 941.7,492.741 942.5,490.5C 942.833,490.5 943.167,490.5 943.5,490.5C 946.833,489.833 950.167,489.167 953.5,488.5C 953.561,486.408 954.561,484.908 956.5,484C 958.81,483.503 961.143,483.337 963.5,483.5C 963.5,482.5 963.5,481.5 963.5,480.5C 965.664,480.279 967.33,479.279 968.5,477.5C 970.167,476.833 971.833,476.167 973.5,475.5C 976.631,476.092 978.964,475.092 980.5,472.5C 981.167,472.5 981.833,472.5 982.5,472.5C 987.096,471.339 991.763,470.339 996.5,469.5C 998.925,467.855 1001.59,466.689 1004.5,466C 1008.87,465.828 1013.2,465.328 1017.5,464.5C 1017.14,463.817 1016.8,463.15 1016.5,462.5C 1021.57,462.755 1026.23,461.755 1030.5,459.5 Z"/></g>
<g><path style="opacity:0.545" fill="#a9e7e3" d="M 1111.5,459.5 C 1115.7,460.132 1119.7,461.132 1123.5,462.5C 1120.83,462.5 1118.17,462.5 1115.5,462.5C 1114.17,461.5 1112.83,460.5 1111.5,459.5 Z"/></g>
<g><path style="opacity:0.545" fill="#abe3df" d="M 1125.5,462.5 C 1127.9,462.259 1129.9,462.926 1131.5,464.5C 1128.99,464.946 1126.99,464.28 1125.5,462.5 Z"/></g>
<g><path style="opacity:1" fill="#89ded6" d="M 222.5,459.5 C 224.68,462.381 225.68,465.714 225.5,469.5C 222.976,466.761 221.976,463.428 222.5,459.5 Z"/></g>
<g><path style="opacity:0.545" fill="#aaeae6" d="M 1133.5,464.5 C 1136.92,464.528 1139.92,465.528 1142.5,467.5C 1139.22,467.072 1136.22,466.072 1133.5,464.5 Z"/></g>
<g><path style="opacity:1" fill="#79ded5" d="M 181.5,464.5 C 182.5,464.5 183.5,464.5 184.5,464.5C 184.5,468.833 184.5,473.167 184.5,477.5C 183.071,473.346 182.071,469.013 181.5,464.5 Z"/></g>
<g><path style="opacity:0.922" fill="#aeece7" d="M 764.5,467.5 C 766.741,468.3 767.741,469.966 767.5,472.5C 766.11,471.101 765.11,469.434 764.5,467.5 Z"/></g>
<g><path style="opacity:1" fill="#78ded5" d="M 1016.5,462.5 C 1016.8,463.15 1017.14,463.817 1017.5,464.5C 1013.2,465.328 1008.87,465.828 1004.5,466C 1001.59,466.689 998.925,467.855 996.5,469.5C 991.763,470.339 987.096,471.339 982.5,472.5C 988.817,469.422 995.484,466.922 1002.5,465C 1007.24,464.471 1011.91,463.638 1016.5,462.5 Z"/></g>
<g><path style="opacity:1" fill="#7fded6" d="M 1142.5,467.5 C 1144.53,467.338 1146.53,467.505 1148.5,468C 1151.9,468.831 1154.9,470.331 1157.5,472.5C 1153.31,471.099 1148.98,470.266 1144.5,470C 1143.24,469.583 1142.58,468.75 1142.5,467.5 Z"/></g>
<g><path style="opacity:1" fill="#71ddd2" d="M 803.5,454.5 C 804.79,455.058 805.623,456.058 806,457.5C 807.147,462.466 807.98,467.466 808.5,472.5C 807.778,472.918 807.278,473.584 807,474.5C 805.863,467.844 804.697,461.177 803.5,454.5 Z"/></g>
<g><path style="opacity:0.922" fill="#9de7e2" d="M 1160.5,472.5 C 1162.82,473.656 1165.16,474.656 1167.5,475.5C 1165.8,475.66 1164.13,475.494 1162.5,475C 1161.24,474.583 1160.58,473.75 1160.5,472.5 Z"/></g>
<g><path style="opacity:0.922" fill="#94e4de" d="M 980.5,472.5 C 978.964,475.092 976.631,476.092 973.5,475.5C 975.843,474.656 978.176,473.656 980.5,472.5 Z"/></g>
<g><path style="opacity:0.545" fill="#93e9e4" d="M 225.5,471.5 C 226.924,473.515 227.59,475.848 227.5,478.5C 226.883,478.389 226.383,478.056 226,477.5C 225.505,475.527 225.338,473.527 225.5,471.5 Z"/></g>
<g><path style="opacity:1" fill="#87e0d8" d="M 1167.5,475.5 C 1171.61,476.427 1175.28,478.093 1178.5,480.5C 1174.92,479.417 1171.25,478.751 1167.5,478.5C 1167.5,477.5 1167.5,476.5 1167.5,475.5 Z"/></g>
<g><path style="opacity:1" fill="#96d8d4" d="M 184.5,477.5 C 185.492,477.328 186.158,477.662 186.5,478.5C 186.5,480.5 186.5,482.5 186.5,484.5C 185.076,482.485 184.41,480.152 184.5,477.5 Z"/></g>
<g><path style="opacity:1" fill="#b0eae8" d="M 767.5,473.5 C 768.997,475.29 769.664,477.456 769.5,480C 769.664,482.544 768.997,484.71 767.5,486.5C 768.097,482.257 768.097,477.924 767.5,473.5 Z"/></g>
<g><path style="opacity:1" fill="#6fe0d5" d="M 186.5,478.5 C 188.415,484.899 189.415,491.565 189.5,498.5C 187.38,494.196 186.38,489.529 186.5,484.5C 186.5,482.5 186.5,480.5 186.5,478.5 Z"/></g>
<g><path style="opacity:0.922" fill="#92e1dc" d="M 1178.5,480.5 C 1180.61,481.783 1182.94,482.616 1185.5,483C 1186.38,483.708 1187.05,484.542 1187.5,485.5C 1184.85,484.513 1182.19,483.513 1179.5,482.5C 1178.7,482.043 1178.37,481.376 1178.5,480.5 Z"/></g>
<g><path style="opacity:1" fill="#76dcd3" d="M 968.5,477.5 C 967.33,479.279 965.664,480.279 963.5,480.5C 963.5,481.5 963.5,482.5 963.5,483.5C 961.143,483.337 958.81,483.503 956.5,484C 954.561,484.908 953.561,486.408 953.5,488.5C 950.167,489.167 946.833,489.833 943.5,490.5C 943.953,489.542 944.619,488.708 945.5,488C 953.077,484.201 960.744,480.701 968.5,477.5 Z"/></g>
<g><path style="opacity:0.545" fill="#92f2e9" d="M 808.5,484.5 C 808.665,488.182 808.499,491.848 808,495.5C 807.722,496.416 807.222,497.082 806.5,497.5C 806.884,492.99 807.551,488.657 808.5,484.5 Z"/></g>
<g><path style="opacity:1" fill="#a0e6e2" d="M 227.5,478.5 C 229.027,482.267 230.027,486.267 230.5,490.5C 227.886,487.069 226.886,483.069 227.5,478.5 Z"/></g>
<g><path style="opacity:0.922" fill="#95e2dc" d="M 1188.5,485.5 C 1191.99,486.41 1194.99,488.076 1197.5,490.5C 1194.85,489.513 1192.19,488.513 1189.5,487.5C 1188.7,487.043 1188.37,486.376 1188.5,485.5 Z"/></g>
<g><path style="opacity:0.922" fill="#9de4df" d="M 942.5,490.5 C 941.7,492.741 940.034,493.741 937.5,493.5C 938.899,492.11 940.566,491.11 942.5,490.5 Z"/></g>
<g><path style="opacity:1" fill="#76ded4" d="M 1198.5,490.5 C 1203.2,492.178 1207.2,494.844 1210.5,498.5C 1207.44,498.072 1204.44,497.406 1201.5,496.5C 1201.32,494.012 1200.32,492.012 1198.5,490.5 Z"/></g>
<g><path style="opacity:1" fill="#a5dcd9" d="M 230.5,493.5 C 231.931,494.78 232.598,496.447 232.5,498.5C 230.744,497.448 230.077,495.781 230.5,493.5 Z"/></g>
<g><path style="opacity:1" fill="#79ddd3" d="M 937.5,493.5 C 937.804,494.15 938.137,494.817 938.5,495.5C 936.106,496.349 933.773,497.349 931.5,498.5C 930.614,499.325 930.281,500.325 930.5,501.5C 927.549,501.287 924.882,501.954 922.5,503.5C 926.951,499.39 931.951,496.056 937.5,493.5 Z"/></g>
<g><path style="opacity:1" fill="#9adad6" d="M 189.5,498.5 C 191.344,500.279 192.01,502.612 191.5,505.5C 189.837,503.562 189.171,501.228 189.5,498.5 Z"/></g>
<g><path style="opacity:0.545" fill="#a8ebe7" d="M 767.5,492.5 C 767.874,496.647 766.874,500.314 764.5,503.5C 764.432,499.43 765.432,495.763 767.5,492.5 Z"/></g>
<g><path style="opacity:1" fill="#7fddd5" d="M 1211.5,498.5 C 1214.37,499.433 1216.7,501.1 1218.5,503.5C 1214.51,503.989 1212.18,502.322 1211.5,498.5 Z"/></g>
<g><path style="opacity:1" fill="#91e8e1" d="M 232.5,498.5 C 233.931,503.329 234.931,508.329 235.5,513.5C 233.241,508.873 232.241,503.873 232.5,498.5 Z"/></g>
<g><path style="opacity:0.545" fill="#a8ebe7" d="M 806.5,498.5 C 806.876,503.273 805.876,507.607 803.5,511.5C 804.057,506.948 805.057,502.615 806.5,498.5 Z"/></g>
<g><path style="opacity:1" fill="#72dfd4" d="M 1219.5,504.5 C 1223.15,506.379 1226.48,508.712 1229.5,511.5C 1226.69,511.307 1224.02,510.64 1221.5,509.5C 1221.17,507.678 1220.5,506.011 1219.5,504.5 Z"/></g>
<g><path style="opacity:0.545" fill="#b6efed" d="M 191.5,508.5 C 193.874,511.686 194.874,515.353 194.5,519.5C 192.682,516.156 191.682,512.489 191.5,508.5 Z"/></g>
<g><path style="opacity:1" fill="#79ded4" d="M 919.5,505.5 C 917.358,509.581 914.025,512.248 909.5,513.5C 912.39,510.375 915.723,507.708 919.5,505.5 Z"/></g>
<g><path style="opacity:1" fill="#84e0d7" d="M 1229.5,511.5 C 1232.81,513.146 1235.48,515.48 1237.5,518.5C 1233.42,517.68 1230.76,515.347 1229.5,511.5 Z"/></g>
<g><path style="opacity:1" fill="#9ee2de" d="M 235.5,514.5 C 237.277,517.505 238.277,520.838 238.5,524.5C 236.395,521.592 235.395,518.258 235.5,514.5 Z"/></g>
<g><path style="opacity:0.549" fill="#80e1d8" d="M 764.5,506.5 C 764.091,510.876 763.425,515.21 762.5,519.5C 600.5,519.5 438.5,519.5 276.5,519.5C 278.556,518.784 280.723,518.117 283,517.5C 442.545,518.403 602.045,518.736 761.5,518.5C 761.87,514.226 762.87,510.226 764.5,506.5 Z"/></g>
<g><path style="opacity:1" fill="#77ddd2" d="M 904.5,516.5 C 904.5,518.167 904.5,519.833 904.5,521.5C 902.833,521.5 901.167,521.5 899.5,521.5C 900.833,519.5 902.5,517.833 904.5,516.5 Z"/></g>
<g><path style="opacity:1" fill="#97e5df" d="M 803.5,517.5 C 802.491,522.283 801.491,526.95 800.5,531.5C 800.334,527.486 800.501,523.486 801,519.5C 801.708,518.619 802.542,517.953 803.5,517.5 Z"/></g>
<g><path style="opacity:1" fill="#a2dedb" d="M 194.5,521.5 C 196.308,522.918 196.975,524.918 196.5,527.5C 195.262,525.786 194.595,523.786 194.5,521.5 Z"/></g>
<g><path style="opacity:0.922" fill="#9ce1db" d="M 271.5,522.5 C 270.598,524.341 269.264,525.674 267.5,526.5C 267.833,524.167 269.167,522.833 271.5,522.5 Z"/></g>
<g><path style="opacity:1" fill="#79ded5" d="M 899.5,521.5 C 897.656,523.672 895.989,526.005 894.5,528.5C 893.675,529.386 892.675,529.719 891.5,529.5C 891.719,530.675 891.386,531.675 890.5,532.5C 887.319,534.527 884.819,537.194 883,540.5C 882.329,539.748 881.496,539.414 880.5,539.5C 885.894,532.437 892.228,526.437 899.5,521.5 Z"/></g>
<g><path style="opacity:1" fill="#62ddcf" d="M 1237.5,518.5 C 1243.8,523.135 1249.47,528.469 1254.5,534.5C 1251.83,533.155 1249.49,531.322 1247.5,529C 1244.66,529.359 1243,527.859 1242.5,524.5C 1241.5,524.5 1240.5,524.5 1239.5,524.5C 1238.83,522.5 1238.17,520.5 1237.5,518.5 Z"/></g>
<g><path style="opacity:0.922" fill="#9be9e4" d="M 196.5,528.5 C 198.568,531.763 199.568,535.43 199.5,539.5C 197.126,536.314 196.126,532.647 196.5,528.5 Z"/></g>
<g><path style="opacity:0.545" fill="#addedd" d="M 800.5,531.5 C 800.279,534.067 799.612,536.401 798.5,538.5C 797.99,535.612 798.656,533.279 800.5,531.5 Z"/></g>
<g><path style="opacity:1" fill="#77ded4" d="M 266.5,527.5 C 266.45,532.552 266.95,537.552 268,542.5C 268.773,546.269 270.94,548.602 274.5,549.5C 274.5,550.5 274.5,551.5 274.5,552.5C 264.182,546.547 261.515,538.214 266.5,527.5 Z"/></g>
<g><path style="opacity:1" fill="#fefefe" d="M 1120.5,541.5 C 1124.85,541.334 1129.18,541.501 1133.5,542C 1114.81,658.81 1095.31,775.643 1075,892.5C 1058.91,893.491 1042.74,893.825 1026.5,893.5C 1041.99,798.212 1058.32,703.045 1075.5,608C 1075.17,607.167 1074.83,606.333 1074.5,605.5C 1045.9,615.699 1017.24,625.699 988.5,635.5C 986.053,635.099 985.053,633.599 985.5,631C 987.946,617.158 990.446,603.324 993,589.5C 995.511,587.437 998.344,585.937 1001.5,585C 1041.38,570.765 1081.05,556.265 1120.5,541.5 Z"/></g>
<g><path style="opacity:1" fill="#88dfd8" d="M 240.5,534.5 C 241.49,537.739 242.49,541.072 243.5,544.5C 242.5,544.5 241.5,544.5 240.5,544.5C 240.5,541.167 240.5,537.833 240.5,534.5 Z"/></g>
<g><path style="opacity:1" fill="#b1e9e7" d="M 199.5,542.5 C 201.074,544.102 201.741,546.102 201.5,548.5C 199.72,547.01 199.054,545.01 199.5,542.5 Z"/></g>
<g><path style="opacity:0.922" fill="#93e5de" d="M 878.5,542.5 C 877.811,545.189 876.144,546.856 873.5,547.5C 874.882,545.451 876.548,543.785 878.5,542.5 Z"/></g>
<g><path style="opacity:1" fill="#71ded5" d="M 1262.5,542.5 C 1265.24,544.239 1267.24,546.573 1268.5,549.5C 1266.99,548.498 1265.32,547.831 1263.5,547.5C 1263.37,545.784 1263.04,544.117 1262.5,542.5 Z"/></g>
<g><path style="opacity:1" fill="#5ad8ca" d="M 207.5,574.5 C 206.549,573.081 206.216,571.415 206.5,569.5C 206.741,567.102 206.074,565.102 204.5,563.5C 204.5,562.5 204.5,561.5 204.5,560.5C 203.908,557.873 203.575,555.206 203.5,552.5C 203.281,551.325 203.614,550.325 204.5,549.5C 206.056,557.781 207.056,566.114 207.5,574.5 Z"/></g>
<g><path style="opacity:0.545" fill="#ace9e5" d="M 798.5,544.5 C 797.664,548.323 796.664,551.989 795.5,555.5C 795.5,554.5 795.5,553.5 795.5,552.5C 795.023,549.083 796.023,546.416 798.5,544.5 Z"/></g>
<g><path style="opacity:0.922" fill="#95e6e0" d="M 1268.5,549.5 C 1271.02,550.893 1272.68,552.893 1273.5,555.5C 1271.98,554.826 1270.64,553.826 1269.5,552.5C 1268.61,551.675 1268.28,550.675 1268.5,549.5 Z"/></g>
<g><path style="opacity:0.545" fill="#afefeb" d="M 201.5,549.5 C 202.167,550.5 202.833,551.5 203.5,552.5C 203.575,555.206 203.908,557.873 204.5,560.5C 202.432,557.237 201.432,553.57 201.5,549.5 Z"/></g>
<g><path style="opacity:0.545" fill="#b9e8e6" d="M 278.5,552.5 C 437.504,551.835 596.17,552.501 754.5,554.5C 596.833,554.667 439.166,554.5 281.5,554C 280.263,553.768 279.263,553.268 278.5,552.5 Z"/></g>
<g><path style="opacity:1" fill="#61d9cd" d="M 795.5,552.5 C 795.5,553.5 795.5,554.5 795.5,555.5C 795.249,559.249 794.583,562.915 793.5,566.5C 792.651,568.888 791.651,571.221 790.5,573.5C 791.67,566.559 792.336,559.559 792.5,552.5C 793.5,552.5 794.5,552.5 795.5,552.5 Z"/></g>
<g><path style="opacity:1" fill="#74ddd3" d="M 873.5,547.5 C 873.5,549.167 873.5,550.833 873.5,552.5C 871.61,552.297 870.11,552.963 869,554.5C 867.701,557.147 866.368,559.814 865,562.5C 864.722,561.584 864.222,560.918 863.5,560.5C 866.109,555.617 869.443,551.284 873.5,547.5 Z"/></g>
<g><path style="opacity:0.545" fill="#a2ebe6" d="M 243.5,549.5 C 244.117,549.611 244.617,549.944 245,550.5C 245.854,555.609 247.021,560.609 248.5,565.5C 247.414,565.38 246.747,564.713 246.5,563.5C 245.496,558.819 244.496,554.153 243.5,549.5 Z"/></g>
<g><path style="opacity:0.922" fill="#a7e6e2" d="M 754.5,557.5 C 754.483,561.534 753.483,565.201 751.5,568.5C 751.517,564.466 752.517,560.799 754.5,557.5 Z"/></g>
<g><path style="opacity:1" fill="#76dfd5" d="M 863.5,560.5 C 863.5,562.167 863.5,563.833 863.5,565.5C 861.053,565.615 859.053,566.615 857.5,568.5C 859.016,565.467 861.016,562.8 863.5,560.5 Z"/></g>
<g><path style="opacity:0.922" fill="#93e2dc" d="M 1278.5,562.5 C 1280.63,564.091 1282.3,566.091 1283.5,568.5C 1282.5,568.586 1281.67,568.252 1281,567.5C 1279.56,566.1 1278.73,564.433 1278.5,562.5 Z"/></g>
<g><path style="opacity:1" fill="#abe8e6" d="M 204.5,563.5 C 206.074,565.102 206.741,567.102 206.5,569.5C 204.72,568.01 204.054,566.01 204.5,563.5 Z"/></g>
<g><path style="opacity:1" fill="#84dfd5" d="M 1283.5,568.5 C 1285.77,570.242 1287.1,572.576 1287.5,575.5C 1284.45,574.223 1283.11,571.89 1283.5,568.5 Z"/></g>
<g><path style="opacity:1" fill="#87dcd5" d="M 248.5,570.5 C 250.68,573.381 251.68,576.714 251.5,580.5C 248.976,577.761 247.976,574.428 248.5,570.5 Z"/></g>
<g><path style="opacity:0.545" fill="#b6f2f0" d="M 751.5,571.5 C 751.741,573.898 751.074,575.898 749.5,577.5C 749.259,575.102 749.926,573.102 751.5,571.5 Z"/></g>
<g><path style="opacity:0.545" fill="#b1eae7" d="M 793.5,566.5 C 793.489,571.17 792.489,575.503 790.5,579.5C 790.5,579.167 790.5,578.833 790.5,578.5C 790.5,576.833 790.5,575.167 790.5,573.5C 791.651,571.221 792.651,568.888 793.5,566.5 Z"/></g>
<g><path style="opacity:0.922" fill="#ade7e5" d="M 207.5,574.5 C 208.612,576.599 209.279,578.933 209.5,581.5C 208.883,581.389 208.383,581.056 208,580.5C 207.505,578.527 207.338,576.527 207.5,574.5 Z"/></g>
<g><path style="opacity:1" fill="#8fe5de" d="M 852.5,576.5 C 851.545,578.746 850.878,581.079 850.5,583.5C 849.5,583.5 848.5,583.5 847.5,583.5C 848.433,580.63 850.1,578.296 852.5,576.5 Z"/></g>
<g><path style="opacity:1" fill="#b0eae8" d="M 251.5,581.5 C 253.163,583.438 253.829,585.772 253.5,588.5C 251.837,586.562 251.171,584.228 251.5,581.5 Z"/></g>
<g><path style="opacity:1" fill="#6cdbd1" d="M 1288.5,576.5 C 1292.38,580.403 1295.05,585.069 1296.5,590.5C 1295.5,590.586 1294.67,590.252 1294,589.5C 1292.88,587.58 1292.04,585.58 1291.5,583.5C 1290.5,583.5 1289.5,583.5 1288.5,583.5C 1288.5,581.167 1288.5,578.833 1288.5,576.5 Z"/></g>
<g><path style="opacity:0.545" fill="#b0eae6" d="M 749.5,581.5 C 749.966,585.982 748.966,589.982 746.5,593.5C 746.584,589.163 747.584,585.163 749.5,581.5 Z"/></g>
<g><path style="opacity:1" fill="#71dad0" d="M 847.5,584.5 C 847.072,587.564 846.406,590.564 845.5,593.5C 844.5,593.5 843.5,593.5 842.5,593.5C 843.243,589.888 844.91,586.888 847.5,584.5 Z"/></g>
<g><path style="opacity:1" fill="#8cdcd6" d="M 209.5,586.5 C 210.5,586.5 211.5,586.5 212.5,586.5C 212.5,589.5 212.5,592.5 212.5,595.5C 211.331,592.659 210.331,589.659 209.5,586.5 Z"/></g>
<g><path style="opacity:1" fill="#a2dfda" d="M 253.5,591.5 C 254.931,592.78 255.598,594.447 255.5,596.5C 253.744,595.448 253.077,593.781 253.5,591.5 Z"/></g>
<g><path style="opacity:0.922" fill="#73dfd4" d="M 1296.5,590.5 C 1298.53,592.902 1300.2,595.569 1301.5,598.5C 1297.47,597.466 1295.8,594.8 1296.5,590.5 Z"/></g>
<g><path style="opacity:1" fill="#83e2da" d="M 212.5,596.5 C 213.75,596.577 214.583,597.244 215,598.5C 215.499,602.152 215.665,605.818 215.5,609.5C 214.269,605.32 213.269,600.986 212.5,596.5 Z"/></g>
<g><path style="opacity:0.545" fill="#ace1de" d="M 787.5,596.5 C 787.279,599.067 786.612,601.401 785.5,603.5C 785.171,600.772 785.837,598.438 787.5,596.5 Z"/></g>
<g><path style="opacity:1" fill="#6fdfd3" d="M 842.5,593.5 C 842.039,597.212 841.373,600.879 840.5,604.5C 838.115,605.292 836.115,606.626 834.5,608.5C 836.554,603.098 839.22,598.098 842.5,593.5 Z"/></g>
<g><path style="opacity:1" fill="#88e1d9" d="M 1301.5,598.5 C 1302.97,600.216 1303.97,602.216 1304.5,604.5C 1303.5,604.5 1302.5,604.5 1301.5,604.5C 1301.5,602.5 1301.5,600.5 1301.5,598.5 Z"/></g>
<g><path style="opacity:0.922" fill="#92e7e1" d="M 255.5,596.5 C 256.401,600.737 257.401,605.07 258.5,609.5C 255.839,605.69 254.839,601.356 255.5,596.5 Z"/></g>
<g><path style="opacity:1" fill="#5cddd1" d="M 790.5,578.5 C 790.5,578.833 790.5,579.167 790.5,579.5C 790.074,585.389 789.074,591.056 787.5,596.5C 785.837,598.438 785.171,600.772 785.5,603.5C 785.5,605.5 785.5,607.5 785.5,609.5C 784.5,609.5 783.5,609.5 782.5,609.5C 783.522,604.22 784.355,598.887 785,593.5C 785.317,591.699 785.984,591.366 787,592.5C 787.499,587.845 787.666,583.179 787.5,578.5C 788.5,578.5 789.5,578.5 790.5,578.5 Z"/></g>
<g><path style="opacity:0.961" fill="#93e7e0" d="M 746.5,596.5 C 745.46,603.317 744.46,610.15 743.5,617C 743.316,618.376 742.649,619.209 741.5,619.5C 742.429,611.557 744.096,603.89 746.5,596.5 Z"/></g>
<g><path style="opacity:0.922" fill="#84e2db" d="M 1304.5,606.5 C 1306.92,609.416 1308.59,612.749 1309.5,616.5C 1305.75,614.269 1304.08,610.936 1304.5,606.5 Z"/></g>
<g><path style="opacity:1" fill="#97e2dd" d="M 834.5,610.5 C 833.558,614.065 831.891,617.065 829.5,619.5C 830.243,615.888 831.91,612.888 834.5,610.5 Z"/></g>
<g><path style="opacity:1" fill="#97e3de" d="M 258.5,610.5 C 260.027,614.267 261.027,618.267 261.5,622.5C 259.05,618.988 258.05,614.988 258.5,610.5 Z"/></g>
<g><path style="opacity:1" fill="#8ce3dc" d="M 215.5,609.5 C 218.903,615.828 220.57,622.828 220.5,630.5C 218.31,623.738 216.643,616.738 215.5,609.5 Z"/></g>
<g><path style="opacity:0.545" fill="#a0e8e2" d="M 1309.5,617.5 C 1310.89,618.899 1311.89,620.566 1312.5,622.5C 1311.5,622.5 1310.5,622.5 1309.5,622.5C 1309.5,620.833 1309.5,619.167 1309.5,617.5 Z"/></g>
<g><path style="opacity:0.545" fill="#a4e7e3" d="M 782.5,609.5 C 783.5,609.5 784.5,609.5 785.5,609.5C 784.29,616.044 782.623,622.378 780.5,628.5C 782.004,622.3 782.67,615.967 782.5,609.5 Z"/></g>
<g><path style="opacity:1" fill="#86e1d9" d="M 829.5,621.5 C 829.856,624.776 828.856,627.443 826.5,629.5C 826.415,626.351 827.415,623.684 829.5,621.5 Z"/></g>
<g><path style="opacity:1" fill="#94e9e1" d="M 741.5,622.5 C 740.836,630.58 739.169,638.246 736.5,645.5C 737.214,637.52 738.88,629.853 741.5,622.5 Z"/></g>
<g><path style="opacity:0.922" fill="#9dd9d7" d="M 220.5,630.5 C 222.344,632.279 223.01,634.612 222.5,637.5C 221.076,635.485 220.41,633.152 220.5,630.5 Z"/></g>
<g><path style="opacity:1" fill="#8ce6de" d="M 261.5,625.5 C 263.498,629.126 264.498,633.126 264.5,637.5C 262.755,633.8 261.755,629.8 261.5,625.5 Z"/></g>
<g><path style="opacity:1" fill="#86d9d3" d="M 826.5,629.5 C 826.662,631.527 826.495,633.527 826,635.5C 825.617,634.944 825.117,634.611 824.5,634.5C 824.796,632.597 825.463,630.93 826.5,629.5 Z"/></g>
<g><path style="opacity:0.922" fill="#a1e7e2" d="M 1314.5,630.5 C 1315.91,632.604 1316.91,634.937 1317.5,637.5C 1315.18,635.815 1314.18,633.481 1314.5,630.5 Z"/></g>
<g><path style="opacity:0.922" fill="#adece9" d="M 780.5,630.5 C 780.698,635.536 779.698,640.203 777.5,644.5C 777.38,639.471 778.38,634.804 780.5,630.5 Z"/></g>
<g><path style="opacity:1" fill="#aceae7" d="M 222.5,640.5 C 224.874,643.686 225.874,647.353 225.5,651.5C 224.074,648.024 223.074,644.357 222.5,640.5 Z"/></g>
<g><path style="opacity:0.545" fill="#a7f7f4" d="M 264.5,637.5 C 265.117,637.611 265.617,637.944 266,638.5C 266.495,640.473 266.662,642.473 266.5,644.5C 265.388,642.401 264.721,640.067 264.5,637.5 Z"/></g>
<g><path style="opacity:1" fill="#85e4db" d="M 824.5,634.5 C 823.51,645.468 820.843,655.801 816.5,665.5C 816.337,663.143 816.503,660.81 817,658.5C 819.818,650.466 822.318,642.466 824.5,634.5 Z"/></g>
<g><path style="opacity:1" fill="#a9e7e3" d="M 736.5,647.5 C 736.5,649.167 736.5,650.833 736.5,652.5C 735.5,654.5 734.5,656.5 733.5,658.5C 733.432,654.43 734.432,650.763 736.5,647.5 Z"/></g>
<g><path style="opacity:0.545" fill="#afe5e3" d="M 777.5,647.5 C 777.741,649.898 777.074,651.898 775.5,653.5C 775.054,650.99 775.72,648.99 777.5,647.5 Z"/></g>
<g><path style="opacity:1" fill="#82e0d8" d="M 1319.5,645.5 C 1320.5,648.792 1321.5,652.125 1322.5,655.5C 1321.5,655.5 1320.5,655.5 1319.5,655.5C 1319.5,652.167 1319.5,648.833 1319.5,645.5 Z"/></g>
<g><path style="opacity:0.545" fill="#b0e3e1" d="M 225.5,652.5 C 226.117,652.611 226.617,652.944 227,653.5C 227.495,655.473 227.662,657.473 227.5,659.5C 226.076,657.485 225.41,655.152 225.5,652.5 Z"/></g>
<g><path style="opacity:1" fill="#64ddd1" d="M 736.5,652.5 C 735.391,657.747 734.558,663.08 734,668.5C 733.764,670.119 732.931,671.119 731.5,671.5C 731.423,667.037 732.09,662.704 733.5,658.5C 734.5,656.5 735.5,654.5 736.5,652.5 Z"/></g>
<g><path style="opacity:0.545" fill="#b0eeec" d="M 775.5,655.5 C 775.543,658.91 775.043,662.243 774,665.5C 773.617,666.056 773.117,666.389 772.5,666.5C 773.336,662.677 774.336,659.011 775.5,655.5 Z"/></g>
<g><path style="opacity:1" fill="#7fdcd4" d="M 266.5,646.5 C 268.691,651.911 270.358,657.577 271.5,663.5C 270.842,664.398 270.176,665.398 269.5,666.5C 268.804,659.741 267.804,653.074 266.5,646.5 Z"/></g>
<g><path style="opacity:1" fill="#94e8e2" d="M 1322.5,659.5 C 1325.09,663.693 1326.09,668.36 1325.5,673.5C 1324.01,669.058 1323.01,664.391 1322.5,659.5 Z"/></g>
<g><path style="opacity:0.922" fill="#97dfd9" d="M 227.5,661.5 C 228.458,661.953 229.292,662.619 230,663.5C 230.497,666.146 230.664,668.813 230.5,671.5C 228.723,668.495 227.723,665.162 227.5,661.5 Z"/></g>
<g><path style="opacity:1" fill="#a8e0dd" d="M 816.5,668.5 C 816.784,670.415 816.451,672.081 815.5,673.5C 815.167,673.5 814.833,673.5 814.5,673.5C 814.402,671.447 815.069,669.78 816.5,668.5 Z"/></g>
<g><path style="opacity:1" fill="#94e4df" d="M 772.5,669.5 C 772.841,673.16 772.175,676.493 770.5,679.5C 770.336,676.813 770.503,674.146 771,671.5C 771.278,670.584 771.778,669.918 772.5,669.5 Z"/></g>
<g><path style="opacity:1" fill="#88ded7" d="M 271.5,666.5 C 273.281,670.2 274.281,674.2 274.5,678.5C 273.849,677.909 273.182,677.243 272.5,676.5C 271.513,673.232 271.18,669.898 271.5,666.5 Z"/></g>
<g><path style="opacity:0.545" fill="#bff2f1" d="M 230.5,674.5 C 232.163,676.438 232.829,678.772 232.5,681.5C 231.076,679.485 230.41,677.152 230.5,674.5 Z"/></g>
<g><path style="opacity:1" fill="#9ee8e3" d="M 731.5,671.5 C 731.876,676.261 730.876,680.595 728.5,684.5C 728.511,679.83 729.511,675.497 731.5,671.5 Z"/></g>
<g><path style="opacity:0.545" fill="#b5f2f1" d="M 1325.5,673.5 C 1327.04,675.838 1327.71,678.505 1327.5,681.5C 1325.78,679.22 1325.11,676.553 1325.5,673.5 Z"/></g>
<g><path style="opacity:0.545" fill="#96e8e2" d="M 274.5,680.5 C 276.258,683.854 277.258,687.521 277.5,691.5C 275.126,688.314 274.126,684.647 274.5,680.5 Z"/></g>
<g><path style="opacity:0.545" fill="#9be6e1" d="M 232.5,681.5 C 234.79,684.342 235.79,687.676 235.5,691.5C 233.32,688.619 232.32,685.286 232.5,681.5 Z"/></g>
<g><path style="opacity:1" fill="#8ed8d3" d="M 770.5,679.5 C 770.575,684.192 769.575,688.526 767.5,692.5C 767.425,687.808 768.425,683.475 770.5,679.5 Z"/></g>
<g><path style="opacity:1" fill="#a8e5e3" d="M 277.5,692.5 C 278.931,693.78 279.598,695.447 279.5,697.5C 277.744,696.448 277.077,694.781 277.5,692.5 Z"/></g>
<g><path style="opacity:1" fill="#8de6de" d="M 728.5,687.5 C 727.474,694.846 726.308,702.18 725,709.5C 724.617,708.944 724.117,708.611 723.5,708.5C 724.43,701.207 726.096,694.207 728.5,687.5 Z"/></g>
<g><path style="opacity:0.545" fill="#b1f6f4" d="M 813.5,686.5 C 812.614,704.817 812.281,723.15 812.5,741.5C 811.338,725.005 811.172,708.338 812,691.5C 812.198,689.618 812.698,687.952 813.5,686.5 Z"/></g>
<g><path style="opacity:0.545" fill="#b3eae9" d="M 235.5,695.5 C 237.074,697.102 237.741,699.102 237.5,701.5C 235.926,699.898 235.259,697.898 235.5,695.5 Z"/></g>
<g><path style="opacity:1" fill="#5dd5c9" d="M 814.5,673.5 C 814.833,673.5 815.167,673.5 815.5,673.5C 814.591,698.486 814.258,723.486 814.5,748.5C 814.167,748.5 813.833,748.5 813.5,748.5C 813.007,746.194 812.674,743.861 812.5,741.5C 812.281,723.15 812.614,704.817 813.5,686.5C 813.231,682.069 813.564,677.735 814.5,673.5 Z"/></g>
<g><path style="opacity:0.545" fill="#a7e3e0" d="M 1327.5,688.5 C 1330.91,706.575 1330.91,724.575 1327.5,742.5C 1327.5,724.5 1327.5,706.5 1327.5,688.5 Z"/></g>
<g><path style="opacity:0.545" fill="#adebe7" d="M 767.5,697.5 C 766.492,701.596 765.492,705.596 764.5,709.5C 764.18,706.102 764.513,702.768 765.5,699.5C 766.182,698.757 766.849,698.091 767.5,697.5 Z"/></g>
<g><path style="opacity:0.545" fill="#b1eeeb" d="M 238.5,706.5 C 239.612,708.599 240.279,710.933 240.5,713.5C 238.837,711.562 238.171,709.228 238.5,706.5 Z"/></g>
<g><path style="opacity:1" fill="#8ae8e0" d="M 279.5,702.5 C 280.793,703.842 281.626,705.509 282,707.5C 283.147,712.466 283.98,717.466 284.5,722.5C 281.581,716.269 279.915,709.602 279.5,702.5 Z"/></g>
<g><path style="opacity:0.545" fill="#b6f0ee" d="M 764.5,710.5 C 764.829,713.228 764.163,715.562 762.5,717.5C 762.721,714.933 763.388,712.599 764.5,710.5 Z"/></g>
<g><path style="opacity:0.922" fill="#a9e6e2" d="M 723.5,712.5 C 723.605,716.258 722.605,719.592 720.5,722.5C 720.723,718.838 721.723,715.505 723.5,712.5 Z"/></g>
<g><path style="opacity:1" fill="#9de5e1" d="M 240.5,717.5 C 241.931,717.881 242.764,718.881 243,720.5C 243.497,722.81 243.663,725.143 243.5,727.5C 242.13,724.381 241.13,721.048 240.5,717.5 Z"/></g>
<g><path style="opacity:0.922" fill="#a7e9e5" d="M 762.5,720.5 C 762.876,725.261 761.876,729.595 759.5,733.5C 759.425,728.808 760.425,724.474 762.5,720.5 Z"/></g>
<g><path style="opacity:0.545" fill="#acefec" d="M 243.5,728.5 C 245.163,730.438 245.829,732.772 245.5,735.5C 243.837,733.562 243.171,731.228 243.5,728.5 Z"/></g>
<g><path style="opacity:0.545" fill="#b6f3f1" d="M 720.5,726.5 C 720.741,728.898 720.074,730.898 718.5,732.5C 718.259,730.102 718.926,728.102 720.5,726.5 Z"/></g>
<g><path style="opacity:0.545" fill="#9ae6e0" d="M 245.5,735.5 C 247.615,739.112 248.615,743.112 248.5,747.5C 246.272,743.924 245.272,739.924 245.5,735.5 Z"/></g>
<g><path style="opacity:1" fill="#80ddd5" d="M 284.5,722.5 C 286.732,728.579 288.398,734.912 289.5,741.5C 288.778,741.918 288.278,742.584 288,743.5C 287.667,742.833 287.333,742.167 287,741.5C 286.674,735.074 285.841,728.74 284.5,722.5 Z"/></g>
<g><path style="opacity:0.545" fill="#b4e5e3" d="M 759.5,738.5 C 759.405,740.786 758.738,742.786 757.5,744.5C 757.025,741.918 757.692,739.918 759.5,738.5 Z"/></g>
<g><path style="opacity:0.545" fill="#afeae6" d="M 718.5,736.5 C 718.966,740.982 717.966,744.982 715.5,748.5C 715.584,744.163 716.584,740.163 718.5,736.5 Z"/></g>
<g><path style="opacity:1" fill="#84ddd5" d="M 289.5,743.5 C 290.49,746.739 291.49,750.072 292.5,753.5C 291.5,753.5 290.5,753.5 289.5,753.5C 289.5,750.167 289.5,746.833 289.5,743.5 Z"/></g>
<g><path style="opacity:0.545" fill="#9de9e5" d="M 813.5,748.5 C 813.833,748.5 814.167,748.5 814.5,748.5C 815.685,753.425 816.351,758.425 816.5,763.5C 814.124,758.894 813.124,753.894 813.5,748.5 Z"/></g>
<g><path style="opacity:1" fill="#a8e5e1" d="M 757.5,747.5 C 757.37,751.525 756.37,755.191 754.5,758.5C 754.432,754.43 755.432,750.763 757.5,747.5 Z"/></g>
<g><path style="opacity:0.545" fill="#bce9e9" d="M 1327.5,750.5 C 1327.59,753.152 1326.92,755.485 1325.5,757.5C 1325.41,754.848 1326.08,752.515 1327.5,750.5 Z"/></g>
<g><path style="opacity:0.545" fill="#aceeeb" d="M 715.5,751.5 C 715.59,754.152 714.924,756.485 713.5,758.5C 713.41,755.848 714.076,753.515 715.5,751.5 Z"/></g>
<g><path style="opacity:0.545" fill="#a4e6e2" d="M 248.5,749.5 C 250.973,755.879 252.639,762.545 253.5,769.5C 251.087,763.124 249.42,756.457 248.5,749.5 Z"/></g>
<g><path style="opacity:1" fill="#92dfd9" d="M 713.5,759.5 C 713.5,762.833 713.5,766.167 713.5,769.5C 712.5,769.5 711.5,769.5 710.5,769.5C 711.51,766.072 712.51,762.739 713.5,759.5 Z"/></g>
<g><path style="opacity:1" fill="#90dfd8" d="M 754.5,764.5 C 753.627,768.983 752.627,773.317 751.5,777.5C 751.5,773.167 751.5,768.833 751.5,764.5C 752.5,764.5 753.5,764.5 754.5,764.5 Z"/></g>
<g><path style="opacity:1" fill="#a5e5e3" d="M 816.5,767.5 C 818.074,769.102 818.741,771.102 818.5,773.5C 816.72,772.01 816.054,770.01 816.5,767.5 Z"/></g>
<g><path style="opacity:1" fill="#90e6de" d="M 294.5,763.5 C 295.314,767.497 296.314,771.497 297.5,775.5C 295.05,771.988 294.05,767.988 294.5,763.5 Z"/></g>
<g><path style="opacity:1" fill="#79ddd4" d="M 1327.5,742.5 C 1327.5,745.167 1327.5,747.833 1327.5,750.5C 1326.08,752.515 1325.41,754.848 1325.5,757.5C 1325.61,763.376 1324.61,769.042 1322.5,774.5C 1320.96,776.838 1320.29,779.505 1320.5,782.5C 1320.25,785.854 1319.25,788.854 1317.5,791.5C 1318.68,785.209 1319.68,778.876 1320.5,772.5C 1321.09,772.291 1321.59,771.957 1322,771.5C 1324.1,762.284 1325.44,752.951 1326,743.5C 1326.38,742.944 1326.88,742.611 1327.5,742.5 Z"/></g>
<g><path style="opacity:0.922" fill="#aceae7" d="M 253.5,771.5 C 255.692,775.098 256.692,779.098 256.5,783.5C 254.973,779.733 253.973,775.733 253.5,771.5 Z"/></g>
<g><path style="opacity:0.922" fill="#9ceae5" d="M 818.5,773.5 C 819.632,777.019 820.632,780.686 821.5,784.5C 820.034,783.653 819.2,782.32 819,780.5C 818.503,778.19 818.337,775.857 818.5,773.5 Z"/></g>
<g><path style="opacity:0.545" fill="#b4ebe9" d="M 1322.5,774.5 C 1322.71,777.495 1322.04,780.162 1320.5,782.5C 1320.29,779.505 1320.96,776.838 1322.5,774.5 Z"/></g>
<g><path style="opacity:0.545" fill="#b1e0df" d="M 751.5,777.5 C 751.59,780.152 750.924,782.485 749.5,784.5C 749.171,781.772 749.837,779.438 751.5,777.5 Z"/></g>
<g><path style="opacity:1" fill="#8ce1da" d="M 710.5,774.5 C 709.083,778.002 708.416,781.669 708.5,785.5C 705.211,786.374 701.877,787.041 698.5,787.5C 700.762,786.177 703.096,784.843 705.5,783.5C 706.988,780.338 708.654,777.338 710.5,774.5 Z"/></g>
<g><path style="opacity:1" fill="#9bdbd8" d="M 256.5,784.5 C 258.308,785.918 258.975,787.918 258.5,790.5C 257.262,788.786 256.595,786.786 256.5,784.5 Z"/></g>
<g><path style="opacity:1" fill="#89dcd6" d="M 297.5,779.5 C 299.267,781.792 300.267,784.458 300.5,787.5C 299.5,787.5 298.5,787.5 297.5,787.5C 297.5,784.833 297.5,782.167 297.5,779.5 Z"/></g>
<g><path style="opacity:1" fill="#88e2da" d="M 749.5,787.5 C 749.68,791.286 748.68,794.619 746.5,797.5C 746.5,794.167 746.5,790.833 746.5,787.5C 747.5,787.5 748.5,787.5 749.5,787.5 Z"/></g>
<g><path style="opacity:1" fill="#42dccc" d="M 297.5,787.5 C 298.5,787.5 299.5,787.5 300.5,787.5C 432.167,787.5 563.833,787.5 695.5,787.5C 694.402,788.397 694.402,789.23 695.5,790C 563.167,790.667 430.833,790.667 298.5,790C 297.748,789.329 297.414,788.496 297.5,787.5 Z"/></g>
<g><path style="opacity:0.545" fill="#afece9" d="M 821.5,787.5 C 823.31,790.145 824.31,793.145 824.5,796.5C 822.145,794.077 821.145,791.077 821.5,787.5 Z"/></g>
<g><path style="opacity:1" fill="#9ae2dd" d="M 258.5,792.5 C 260.712,795.321 261.712,798.655 261.5,802.5C 259.32,799.619 258.32,796.286 258.5,792.5 Z"/></g>
<g><path style="opacity:0.545" fill="#9ae0dc" d="M 1316.5,795.5 C 1316.6,797.553 1315.93,799.22 1314.5,800.5C 1314.08,798.219 1314.74,796.552 1316.5,795.5 Z"/></g>
<g><path style="opacity:0.545" fill="#a8ebe8" d="M 824.5,796.5 C 826.213,797.635 826.88,799.302 826.5,801.5C 824.787,800.365 824.12,798.698 824.5,796.5 Z"/></g>
<g><path style="opacity:0.922" fill="#afe4e1" d="M 1314.5,803.5 C 1314.57,805.027 1313.91,806.027 1312.5,806.5C 1312.29,804.821 1312.95,803.821 1314.5,803.5 Z"/></g>
<g><path style="opacity:1" fill="#a2e0dc" d="M 827.5,805.5 C 829.256,806.552 829.923,808.219 829.5,810.5C 828.069,809.22 827.402,807.553 827.5,805.5 Z"/></g>
<g><path style="opacity:1" fill="#62ddd0" d="M 746.5,797.5 C 744.134,804.89 739.801,810.89 733.5,815.5C 733.423,814.25 732.756,813.417 731.5,813C 734.147,812.685 734.813,811.518 733.5,809.5C 736.024,807.813 738.69,806.48 741.5,805.5C 741.693,802.692 742.36,800.025 743.5,797.5C 744.5,797.5 745.5,797.5 746.5,797.5 Z"/></g>
<g><path style="opacity:0.545" fill="#b0e9e7" d="M 1312.5,808.5 C 1312.25,810.674 1311.25,812.341 1309.5,813.5C 1309.26,810.966 1310.26,809.3 1312.5,808.5 Z"/></g>
<g><path style="opacity:0.545" fill="#9eeae5" d="M 261.5,805.5 C 264.164,811.113 265.831,817.113 266.5,823.5C 265.207,822.158 264.374,820.491 264,818.5C 263.575,813.993 262.742,809.659 261.5,805.5 Z"/></g>
<g><path style="opacity:1" fill="#6eded2" d="M 829.5,810.5 C 830.5,810.5 831.5,810.5 832.5,810.5C 832.5,812.167 832.5,813.833 832.5,815.5C 833.5,815.5 834.5,815.5 835.5,815.5C 835.942,819.154 836.276,822.821 836.5,826.5C 834.812,822.8 832.812,819.134 830.5,815.5C 829.548,813.955 829.215,812.288 829.5,810.5 Z"/></g>
<g><path style="opacity:0.545" fill="#b3edea" d="M 1309.5,815.5 C 1309.71,817.179 1309.05,818.179 1307.5,818.5C 1307.43,816.973 1308.09,815.973 1309.5,815.5 Z"/></g>
<g><path style="opacity:0.922" fill="#93e1db" d="M 729.5,818.5 C 727.909,820.633 725.909,822.299 723.5,823.5C 723.5,822.5 723.5,821.5 723.5,820.5C 725.5,819.833 727.5,819.167 729.5,818.5 Z"/></g>
<g><path style="opacity:0.545" fill="#abece8" d="M 1307.5,818.5 C 1307.83,821.491 1306.83,823.824 1304.5,825.5C 1305.26,822.982 1306.26,820.649 1307.5,818.5 Z"/></g>
<g><path style="opacity:0.545" fill="#99ede6" d="M 721.5,823.5 C 719.824,825.834 717.491,826.834 714.5,826.5C 716.32,824.552 718.654,823.552 721.5,823.5 Z"/></g>
<g><path style="opacity:0.545" fill="#a2edea" d="M 714.5,826.5 C 712.22,828.223 709.553,828.889 706.5,828.5C 708.905,827.232 711.572,826.565 714.5,826.5 Z"/></g>
<g><path style="opacity:0.545" fill="#adebe7" d="M 706.5,828.5 C 574.33,828.834 442.33,829.834 310.5,831.5C 309.596,830.791 309.263,829.791 309.5,828.5C 441.833,828.5 574.167,828.5 706.5,828.5 Z"/></g>
<g><path style="opacity:1" fill="#94dcd6" d="M 836.5,826.5 C 838.545,827.923 839.545,829.923 839.5,832.5C 837.461,831.089 836.461,829.089 836.5,826.5 Z"/></g>
<g><path style="opacity:0.545" fill="#96e0db" d="M 1303.5,828.5 C 1302.9,831.317 1301.57,833.65 1299.5,835.5C 1299.6,832.361 1300.93,830.027 1303.5,828.5 Z"/></g>
<g><path style="opacity:0.545" fill="#abe9e6" d="M 266.5,827.5 C 267.117,827.611 267.617,827.944 268,828.5C 269.361,834.141 270.528,839.808 271.5,845.5C 269.341,839.742 267.674,833.742 266.5,827.5 Z"/></g>
<g><path style="opacity:1" fill="#a0e2dd" d="M 310.5,834.5 C 312.41,837.452 313.41,840.786 313.5,844.5C 311.395,841.592 310.395,838.258 310.5,834.5 Z"/></g>
<g><path style="opacity:1" fill="#87e2da" d="M 839.5,834.5 C 840.5,834.5 841.5,834.5 842.5,834.5C 844.782,838.502 846.449,842.835 847.5,847.5C 844.547,843.4 841.88,839.067 839.5,834.5 Z"/></g>
<g><path style="opacity:1" fill="#7ae4da" d="M 1299.5,836.5 C 1298.55,839.751 1296.88,842.418 1294.5,844.5C 1293.8,840.173 1295.47,837.506 1299.5,836.5 Z"/></g>
<g><path style="opacity:1" fill="#91e0d9" d="M 1294.5,844.5 C 1294.74,847.034 1293.74,848.7 1291.5,849.5C 1291.72,847.336 1292.72,845.67 1294.5,844.5 Z"/></g>
<g><path style="opacity:0.922" fill="#9be4df" d="M 847.5,847.5 C 849.741,848.3 850.741,849.966 850.5,852.5C 849.11,851.101 848.11,849.434 847.5,847.5 Z"/></g>
<g><path style="opacity:0.545" fill="#b3ebe9" d="M 271.5,849.5 C 273.68,852.381 274.68,855.714 274.5,859.5C 273.13,856.381 272.13,853.048 271.5,849.5 Z"/></g>
<g><path style="opacity:1" fill="#90e7e1" d="M 313.5,846.5 C 315.163,848.438 315.829,850.772 315.5,853.5C 313.656,851.721 312.99,849.388 313.5,846.5 Z"/></g>
<g><path style="opacity:0.545" fill="#9ce8e4" d="M 1291.5,849.5 C 1291.73,851.933 1290.73,853.599 1288.5,854.5C 1288.59,852.152 1289.59,850.486 1291.5,849.5 Z"/></g>
<g><path style="opacity:0.922" fill="#a6e7e2" d="M 852.5,855.5 C 854.262,856.262 855.262,857.596 855.5,859.5C 853.738,858.738 852.738,857.404 852.5,855.5 Z"/></g>
<g><path style="opacity:1" fill="#71dfd5" d="M 1288.5,854.5 C 1287.57,857.644 1285.9,860.311 1283.5,862.5C 1283.69,859.692 1284.36,857.025 1285.5,854.5C 1286.5,854.5 1287.5,854.5 1288.5,854.5 Z"/></g>
<g><path style="opacity:0.545" fill="#b0f0ec" d="M 855.5,859.5 C 856.401,860.29 857.068,861.29 857.5,862.5C 855.952,862.179 855.285,861.179 855.5,859.5 Z"/></g>
<g><path style="opacity:1" fill="#75dbd1" d="M 274.5,859.5 C 275.5,859.5 276.5,859.5 277.5,859.5C 277.844,866.205 278.511,872.872 279.5,879.5C 276.987,873.131 275.321,866.464 274.5,859.5 Z"/></g>
<g><path style="opacity:1" fill="#88e2db" d="M 1283.5,862.5 C 1282.57,865.37 1280.9,867.704 1278.5,869.5C 1278.01,865.513 1279.68,863.18 1283.5,862.5 Z"/></g>
<g><path style="opacity:0.545" fill="#b9eeed" d="M 318.5,866.5 C 320.104,867.287 320.771,868.62 320.5,870.5C 318.896,869.713 318.229,868.38 318.5,866.5 Z"/></g>
<g><path style="opacity:1" fill="#7ddfd6" d="M 315.5,856.5 C 317.976,859.288 318.976,862.622 318.5,866.5C 318.229,868.38 318.896,869.713 320.5,870.5C 321.312,872.945 322.312,875.278 323.5,877.5C 321.259,876.7 320.259,875.034 320.5,872.5C 319.5,872.5 318.5,872.5 317.5,872.5C 317.752,867.012 317.085,861.678 315.5,856.5 Z"/></g>
<g><path style="opacity:0.545" fill="#91e2db" d="M 1277.5,870.5 C 1276.86,872.826 1275.52,874.493 1273.5,875.5C 1273.74,872.931 1275.07,871.265 1277.5,870.5 Z"/></g>
<g><path style="opacity:1" fill="#69ddd1" d="M 857.5,862.5 C 859.5,863.167 861.5,863.833 863.5,864.5C 862.812,869.815 865.145,872.815 870.5,873.5C 871.06,875.854 871.727,878.187 872.5,880.5C 873.524,881.853 874.857,882.52 876.5,882.5C 877.167,884.5 877.833,886.5 878.5,888.5C 870.056,881.051 863.056,872.384 857.5,862.5 Z"/></g>
<g><path style="opacity:1" fill="#74dfd4" d="M 1273.5,875.5 C 1271.37,879.24 1268.7,882.574 1265.5,885.5C 1265.5,883.833 1265.5,882.167 1265.5,880.5C 1266.5,880.5 1267.5,880.5 1268.5,880.5C 1268.83,877.5 1270.5,875.833 1273.5,875.5 Z"/></g>
<g><path style="opacity:0.545" fill="#a5ebe6" d="M 323.5,880.5 C 325.927,880.523 328.26,881.023 330.5,882C 466.001,882.167 601.334,882.667 736.5,883.5C 602.833,883.5 469.167,883.5 335.5,883.5C 331.5,883.5 327.5,883.5 323.5,883.5C 323.5,882.5 323.5,881.5 323.5,880.5 Z"/></g>
<g><path style="opacity:0.545" fill="#b4f1f0" d="M 279.5,881.5 C 281.074,883.102 281.741,885.102 281.5,887.5C 279.926,885.898 279.259,883.898 279.5,881.5 Z"/></g>
<g><path style="opacity:0.999" fill="#7beee5" d="M 335.5,883.5 C 469.167,883.5 602.833,883.5 736.5,883.5C 739.553,883.111 742.22,883.777 744.5,885.5C 608.027,884.838 471.694,884.172 335.5,883.5 Z"/></g>
<g><path style="opacity:0.922" fill="#aae9e6" d="M 746.5,885.5 C 748.5,885.5 749.5,886.5 749.5,888.5C 747.81,888.144 746.81,887.144 746.5,885.5 Z"/></g>
<g><path style="opacity:1" fill="#85e1d8" d="M 1265.5,885.5 C 1260.2,892.47 1254.2,898.804 1247.5,904.5C 1247.5,903.167 1247.5,901.833 1247.5,900.5C 1250.5,900.167 1252.17,898.5 1252.5,895.5C 1255.5,895.167 1257.17,893.5 1257.5,890.5C 1258.5,890.5 1259.5,890.5 1260.5,890.5C 1260.83,887.5 1262.5,885.833 1265.5,885.5 Z"/></g>
<g><path style="opacity:0.545" fill="#a5ebe6" d="M 281.5,888.5 C 283.008,890.181 284.008,892.181 284.5,894.5C 282.461,893.089 281.461,891.089 281.5,888.5 Z"/></g>
<g><path style="opacity:1" fill="#73ddd3" d="M 749.5,888.5 C 750.496,888.414 751.329,888.748 752,889.5C 753.559,891.217 754.392,893.217 754.5,895.5C 753.5,895.5 752.5,895.5 751.5,895.5C 751.532,892.924 750.865,890.591 749.5,888.5 Z"/></g>
<g><path style="opacity:0.922" fill="#a7e8e3" d="M 882.5,893.5 C 884.531,894.539 885.864,896.205 886.5,898.5C 884.457,897.421 883.124,895.754 882.5,893.5 Z"/></g>
<g><path style="opacity:0.922" fill="#a7e9e5" d="M 284.5,895.5 C 286.25,896.659 287.25,898.326 287.5,900.5C 285.273,899.599 284.273,897.933 284.5,895.5 Z"/></g>
<g><path style="opacity:1" fill="#5bdbce" d="M 879.5,890.5 C 881.746,891.455 884.079,892.122 886.5,892.5C 887.167,894.5 887.833,896.5 888.5,898.5C 890.5,899.167 892.5,899.833 894.5,900.5C 894.281,901.675 894.614,902.675 895.5,903.5C 898.647,906.372 901.647,909.372 904.5,912.5C 905.689,913.429 907.022,913.762 908.5,913.5C 908.5,914.5 908.5,915.5 908.5,916.5C 910.484,916.617 912.15,915.95 913.5,914.5C 913.833,914.833 914.167,915.167 914.5,915.5C 913.833,916.167 913.167,916.833 912.5,917.5C 913.612,918.265 914.279,919.265 914.5,920.5C 913.391,920.443 912.391,920.11 911.5,919.5C 909.195,918.213 906.862,916.88 904.5,915.5C 898.426,909.817 892.426,904.151 886.5,898.5C 885.864,896.205 884.531,894.539 882.5,893.5C 880.856,893.19 879.856,892.19 879.5,890.5 Z"/></g>
<g><path style="opacity:0.545" fill="#87e3db" d="M 287.5,900.5 C 288.496,900.414 289.329,900.748 290,901.5C 291.438,902.9 292.271,904.567 292.5,906.5C 290.367,904.909 288.701,902.909 287.5,900.5 Z"/></g>
<g><path style="opacity:0.545" fill="#b8f3f1" d="M 1247.5,904.5 C 1247.5,905.833 1246.83,906.5 1245.5,906.5C 1245.5,905.167 1246.17,904.5 1247.5,904.5 Z"/></g>
<g><path style="opacity:0.545" fill="#a8e7e4" d="M 754.5,895.5 C 758.224,901.229 758.224,906.896 754.5,912.5C 755.444,909.001 755.444,905.668 754.5,902.5C 754.5,900.167 754.5,897.833 754.5,895.5 Z"/></g>
<g><path style="opacity:0.545" fill="#a2e8e4" d="M 1245.5,906.5 C 1245.03,907.906 1244.03,908.573 1242.5,908.5C 1242.82,906.952 1243.82,906.285 1245.5,906.5 Z"/></g>
<g><path style="opacity:0.545" fill="#a7e9e4" d="M 297.5,911.5 C 299.551,912.487 301.218,913.82 302.5,915.5C 299.873,915.21 298.206,913.876 297.5,911.5 Z"/></g>
<g><path style="opacity:1" fill="#8ddfd8" d="M 1233.5,916.5 C 1232.74,918.262 1231.4,919.262 1229.5,919.5C 1229.5,918.5 1229.5,917.5 1229.5,916.5C 1230.83,916.5 1232.17,916.5 1233.5,916.5 Z"/></g>
<g><path style="opacity:1" fill="#7be1d7" d="M 304.5,916.5 C 311.322,918.112 317.656,920.445 323.5,923.5C 323.5,923.833 323.5,924.167 323.5,924.5C 317.474,923.823 311.808,921.99 306.5,919C 305.619,918.292 304.953,917.458 304.5,916.5 Z"/></g>
<g><path style="opacity:0.545" fill="#b0f1ee" d="M 1229.5,919.5 C 1229.5,920.833 1228.83,921.5 1227.5,921.5C 1227.5,920.167 1228.17,919.5 1229.5,919.5 Z"/></g>
<g><path style="opacity:0.922" fill="#9cebe6" d="M 911.5,919.5 C 912.391,920.11 913.391,920.443 914.5,920.5C 915.5,921.833 916.5,923.167 917.5,924.5C 914.865,923.527 912.865,921.86 911.5,919.5 Z"/></g>
<g><path style="opacity:1" fill="#7fded4" d="M 754.5,902.5 C 755.444,905.668 755.444,909.001 754.5,912.5C 753.596,917.25 750.93,920.75 746.5,923C 742.619,924.19 738.619,924.857 734.5,925C 597.472,925.828 460.472,925.662 323.5,924.5C 323.5,924.167 323.5,923.833 323.5,923.5C 464.568,924.15 605.568,923.484 746.5,921.5C 746.5,920.5 746.5,919.5 746.5,918.5C 748.143,918.52 749.476,917.853 750.5,916.5C 752.412,911.86 753.745,907.193 754.5,902.5 Z"/></g>
<g><path style="opacity:0.922" fill="#7cdfd5" d="M 1227.5,921.5 C 1223.84,924.16 1220.17,926.826 1216.5,929.5C 1216.5,928.5 1216.5,927.5 1216.5,926.5C 1219.5,926.167 1221.17,924.5 1221.5,921.5C 1223.5,921.5 1225.5,921.5 1227.5,921.5 Z"/></g>
<g><path style="opacity:1" fill="#78e0d5" d="M 918.5,924.5 C 920.558,925.933 922.892,926.6 925.5,926.5C 925.831,928.322 926.498,929.989 927.5,931.5C 923.907,929.905 920.907,927.572 918.5,924.5 Z"/></g>
<g><path style="opacity:1" fill="#85e1d8" d="M 1215.5,929.5 C 1213.71,931.954 1211.38,933.621 1208.5,934.5C 1208.5,933.5 1208.5,932.5 1208.5,931.5C 1210.83,930.833 1213.17,930.167 1215.5,929.5 Z"/></g>
<g><path style="opacity:0.545" fill="#a3e3df" d="M 932.5,934.5 C 934.179,934.285 935.179,934.952 935.5,936.5C 934.29,936.068 933.29,935.401 932.5,934.5 Z"/></g>
<g><path style="opacity:0.545" fill="#b7f3f1" d="M 1206.5,935.5 C 1206.18,937.048 1205.18,937.715 1203.5,937.5C 1204.29,936.599 1205.29,935.932 1206.5,935.5 Z"/></g>
<g><path style="opacity:0.545" fill="#b1efed" d="M 375.5,939.5 C 368.163,938.227 360.829,938.227 353.5,939.5C 357.203,937.945 361.203,937.278 365.5,937.5C 368.5,937.667 371.5,937.833 374.5,938C 375.056,938.383 375.389,938.883 375.5,939.5 Z"/></g>
<g><path style="opacity:0.545" fill="#a2e9e5" d="M 680.5,939.5 C 672.5,939.5 664.5,939.5 656.5,939.5C 660.034,937.952 663.867,937.286 668,937.5C 672.442,937.326 676.609,937.993 680.5,939.5 Z"/></g>
<g><path style="opacity:0.545" fill="#a6e9e5" d="M 937.5,937.5 C 939.179,937.285 940.179,937.952 940.5,939.5C 938.973,939.573 937.973,938.906 937.5,937.5 Z"/></g>
<g><path style="opacity:1" fill="#65d5ca" d="M 375.5,939.5 C 376.167,939.5 376.833,939.5 377.5,939.5C 377.5,939.833 377.5,940.167 377.5,940.5C 365.703,940.003 354.037,940.67 342.5,942.5C 345.59,939.946 349.256,938.946 353.5,939.5C 360.829,938.227 368.163,938.227 375.5,939.5 Z"/></g>
<g><path style="opacity:0.545" fill="#a7ece8" d="M 377.5,940.5 C 377.5,940.167 377.5,939.833 377.5,939.5C 380.831,939.018 383.497,940.018 385.5,942.5C 382.833,941.833 380.167,941.167 377.5,940.5 Z"/></g>
<g><path style="opacity:1" fill="#2bdac8" d="M 377.5,940.5 C 380.167,941.167 382.833,941.833 385.5,942.5C 386.167,942.5 386.833,942.5 387.5,942.5C 387.5,943.5 387.5,944.5 387.5,945.5C 390.451,945.287 393.118,945.954 395.5,947.5C 396.167,947.5 396.833,947.5 397.5,947.5C 397.414,948.496 397.748,949.329 398.5,950C 399.9,951.438 401.567,952.271 403.5,952.5C 404.167,954.5 404.833,956.5 405.5,958.5C 407.5,959.167 409.5,959.833 411.5,960.5C 411.738,963.069 413.071,964.735 415.5,965.5C 416.338,965.842 416.672,966.508 416.5,967.5C 418.046,969.882 418.713,972.549 418.5,975.5C 419.5,975.5 420.5,975.5 421.5,975.5C 421.5,975.833 421.5,976.167 421.5,976.5C 421.892,979.146 421.892,981.646 421.5,984C 422.416,984.374 423.25,984.874 424,985.5C 425.116,992.792 425.616,1000.13 425.5,1007.5C 424.883,1007.39 424.383,1007.06 424,1006.5C 423.501,1010.82 423.334,1015.15 423.5,1019.5C 421.744,1020.55 421.077,1022.22 421.5,1024.5C 421.737,1025.79 421.404,1026.79 420.5,1027.5C 418.952,1027.82 418.285,1028.82 418.5,1030.5C 414.678,1031.18 413.011,1033.51 413.5,1037.5C 413.5,1037.83 413.5,1038.17 413.5,1038.5C 412.167,1038.5 411.5,1039.17 411.5,1040.5C 409.5,1041.17 407.5,1041.83 405.5,1042.5C 404.833,1044.5 404.167,1046.5 403.5,1048.5C 403.167,1048.5 402.833,1048.5 402.5,1048.5C 400.071,1048.88 397.737,1049.55 395.5,1050.5C 395.5,1051.5 395.5,1052.5 395.5,1053.5C 393.396,1053.2 391.396,1053.53 389.5,1054.5C 388.451,1056.22 387.118,1057.55 385.5,1058.5C 385.167,1058.5 384.833,1058.5 384.5,1058.5C 380.298,1059.13 376.298,1060.13 372.5,1061.5C 364.684,1062.82 357.018,1062.49 349.5,1060.5C 348.07,1059.46 346.403,1058.8 344.5,1058.5C 341.169,1058.98 338.503,1057.98 336.5,1055.5C 336.5,1054.5 336.5,1053.5 336.5,1052.5C 332.332,1051.78 328.999,1049.78 326.5,1046.5C 324.955,1045.55 323.288,1045.21 321.5,1045.5C 320.662,1045.16 320.328,1044.49 320.5,1043.5C 319.833,1041.5 319.167,1039.5 318.5,1037.5C 316.678,1037.17 315.011,1036.5 313.5,1035.5C 311.273,1034.6 310.273,1032.93 310.5,1030.5C 309.627,1026.88 308.961,1023.21 308.5,1019.5C 307.5,1019.5 306.5,1019.5 305.5,1019.5C 302.87,1006.5 302.87,993.503 305.5,980.5C 305.5,979.833 305.5,979.167 305.5,978.5C 309.534,977.466 311.201,974.8 310.5,970.5C 310.5,969.833 310.5,969.167 310.5,968.5C 311.5,968.5 312.5,968.5 313.5,968.5C 314.001,965.822 315.501,963.822 318,962.5C 318.49,961.207 318.657,959.873 318.5,958.5C 320.239,955.757 322.573,953.757 325.5,952.5C 326.675,952.719 327.675,952.386 328.5,951.5C 329.826,950.358 330.826,949.024 331.5,947.5C 331.833,947.5 332.167,947.5 332.5,947.5C 335.215,945.877 338.215,945.21 341.5,945.5C 341.5,944.5 341.5,943.5 341.5,942.5C 341.833,942.5 342.167,942.5 342.5,942.5C 354.037,940.67 365.703,940.003 377.5,940.5 Z M 372.5,982.5 C 372.842,983.338 373.508,983.672 374.5,983.5C 375.29,984.401 376.29,985.068 377.5,985.5C 377.5,986.167 377.833,986.5 378.5,986.5C 386.627,996.249 386.294,1005.58 377.5,1014.5C 368.796,1019.83 360.129,1019.83 351.5,1014.5C 345.853,1008.94 343.853,1002.27 345.5,994.5C 346.859,989.427 349.859,985.76 354.5,983.5C 360.342,981.185 366.342,980.851 372.5,982.5 Z"/></g>
<g><path style="opacity:1" fill="#2bdac8" d="M 653.5,939.5 C 654.5,939.5 655.5,939.5 656.5,939.5C 664.5,939.5 672.5,939.5 680.5,939.5C 682.896,941.951 685.896,942.951 689.5,942.5C 692.142,944.722 695.142,946.389 698.5,947.5C 699.167,947.5 699.833,947.5 700.5,947.5C 700.833,950.5 702.5,952.167 705.5,952.5C 711.558,955.558 715.891,960.225 718.5,966.5C 719.455,968.746 720.122,971.079 720.5,973.5C 721.5,973.5 722.5,973.5 723.5,973.5C 726.099,978.568 727.766,983.901 728.5,989.5C 728.5,996.833 728.5,1004.17 728.5,1011.5C 728.5,1011.83 728.5,1012.17 728.5,1012.5C 727.5,1012.5 726.5,1012.5 725.5,1012.5C 725.5,1015.83 725.5,1019.17 725.5,1022.5C 723.824,1023.18 723.157,1024.52 723.5,1026.5C 723.545,1029.08 722.545,1031.08 720.5,1032.5C 716.47,1033.51 714.803,1036.17 715.5,1040.5C 713.833,1042.17 712.167,1043.83 710.5,1045.5C 708.088,1045.67 705.921,1045 704,1043.5C 703.5,1043.83 703,1044.17 702.5,1044.5C 703.167,1045.17 703.833,1045.83 704.5,1046.5C 702.828,1048.34 701.494,1050.34 700.5,1052.5C 700.158,1053.34 699.492,1053.67 698.5,1053.5C 693.889,1054.49 689.222,1055.15 684.5,1055.5C 684.5,1056.5 684.5,1057.5 684.5,1058.5C 680.998,1059.92 677.331,1060.58 673.5,1060.5C 664.418,1060.77 655.418,1060.1 646.5,1058.5C 646.167,1058.5 645.833,1058.5 645.5,1058.5C 643.37,1057.04 642.037,1055.04 641.5,1052.5C 639.396,1052.8 637.396,1052.47 635.5,1051.5C 632.93,1048.77 629.93,1046.77 626.5,1045.5C 624.215,1043.88 622.215,1041.88 620.5,1039.5C 619.675,1038.61 618.675,1038.28 617.5,1038.5C 617.5,1037.83 617.5,1037.17 617.5,1036.5C 616.289,1034.05 614.622,1032.05 612.5,1030.5C 612.5,1030.17 612.5,1029.83 612.5,1029.5C 610.857,1025.7 610.19,1021.7 610.5,1017.5C 609.5,1017.5 608.5,1017.5 607.5,1017.5C 607.5,1015.5 607.5,1013.5 607.5,1011.5C 607.5,1004.5 607.5,997.5 607.5,990.5C 607.5,988.833 607.5,987.167 607.5,985.5C 607.5,984.833 607.5,984.167 607.5,983.5C 608.5,983.5 609.5,983.5 610.5,983.5C 610.572,979.374 611.239,975.374 612.5,971.5C 612.5,971.167 612.5,970.833 612.5,970.5C 613.5,970.5 614.5,970.5 615.5,970.5C 615.5,968.833 615.5,967.167 615.5,965.5C 616.5,965.167 617.167,964.5 617.5,963.5C 622.438,961.291 625.771,957.624 627.5,952.5C 630.089,951.581 632.089,949.914 633.5,947.5C 633.833,947.5 634.167,947.5 634.5,947.5C 637.671,946.564 640.338,944.897 642.5,942.5C 643.5,942.5 644.5,942.5 645.5,942.5C 648.443,942.02 651.11,941.02 653.5,939.5 Z M 677.5,983.5 C 684.718,990.824 687.051,999.491 684.5,1009.5C 683.599,1010.29 682.932,1011.29 682.5,1012.5C 680.091,1013.7 678.091,1015.37 676.5,1017.5C 663.309,1022.22 653.975,1018.22 648.5,1005.5C 648.5,1005.17 648.5,1004.83 648.5,1004.5C 647.439,997.68 649.106,991.68 653.5,986.5C 654.945,984.937 656.611,983.604 658.5,982.5C 664.96,980.946 671.293,981.28 677.5,983.5 Z"/></g>
<g><path style="opacity:0.922" fill="#a1e5df" d="M 653.5,939.5 C 651.11,941.02 648.443,942.02 645.5,942.5C 647.617,940.345 650.284,939.345 653.5,939.5 Z"/></g>
<g><path style="opacity:1" fill="#82dfd7" d="M 680.5,939.5 C 684.044,939.132 687.044,940.132 689.5,942.5C 685.896,942.951 682.896,941.951 680.5,939.5 Z"/></g>
<g><path style="opacity:0.545" fill="#96e6df" d="M 387.5,942.5 C 389.873,943.294 392.206,944.294 394.5,945.5C 395.298,945.957 395.631,946.624 395.5,947.5C 393.118,945.954 390.451,945.287 387.5,945.5C 387.5,944.5 387.5,943.5 387.5,942.5 Z"/></g>
<g><path style="opacity:0.545" fill="#8ee2db" d="M 689.5,942.5 C 691.901,943.049 694.235,943.882 696.5,945C 697.381,945.708 698.047,946.542 698.5,947.5C 695.142,946.389 692.142,944.722 689.5,942.5 Z"/></g>
<g><path style="opacity:1" fill="#6cdbd1" d="M 940.5,939.5 C 946.516,940.251 951.85,942.418 956.5,946C 955.944,946.383 955.611,946.883 955.5,947.5C 951.178,945.673 946.845,943.84 942.5,942C 941.619,941.292 940.953,940.458 940.5,939.5 Z"/></g>
<g><path style="opacity:0.922" fill="#8de3dc" d="M 341.5,942.5 C 341.5,943.5 341.5,944.5 341.5,945.5C 338.215,945.21 335.215,945.877 332.5,947.5C 332.953,946.542 333.619,945.708 334.5,945C 336.868,944.144 339.202,943.31 341.5,942.5 Z"/></g>
<g><path style="opacity:0.922" fill="#9ae4df" d="M 642.5,942.5 C 640.338,944.897 637.671,946.564 634.5,947.5C 636.662,945.103 639.329,943.436 642.5,942.5 Z"/></g>
<g><path style="opacity:1" fill="#71e0d5" d="M 1201.5,938.5 C 1193.37,944.138 1184.71,948.805 1175.5,952.5C 1175.48,950.857 1176.15,949.524 1177.5,948.5C 1182.48,945.587 1187.82,943.587 1193.5,942.5C 1193.5,941.5 1193.5,940.5 1193.5,939.5C 1196.24,939.599 1198.9,939.265 1201.5,938.5 Z"/></g>
<g><path style="opacity:0.922" fill="#8ce3dc" d="M 331.5,947.5 C 330.826,949.024 329.826,950.358 328.5,951.5C 327.675,952.386 326.675,952.719 325.5,952.5C 326.174,950.976 327.174,949.642 328.5,948.5C 329.325,947.614 330.325,947.281 331.5,947.5 Z"/></g>
<g><path style="opacity:1" fill="#7fe1d8" d="M 956.5,947.5 C 960.203,948.146 963.203,949.812 965.5,952.5C 963.394,951.217 961.06,950.384 958.5,950C 957.619,949.292 956.953,948.458 956.5,947.5 Z"/></g>
<g><path style="opacity:0.922" fill="#a1e7e2" d="M 633.5,947.5 C 632.089,949.914 630.089,951.581 627.5,952.5C 628.911,950.086 630.911,948.419 633.5,947.5 Z"/></g>
<g><path style="opacity:1" fill="#91e0da" d="M 397.5,947.5 C 399.981,948.72 401.981,950.386 403.5,952.5C 401.567,952.271 399.9,951.438 398.5,950C 397.748,949.329 397.414,948.496 397.5,947.5 Z"/></g>
<g><path style="opacity:1" fill="#85ded7" d="M 700.5,947.5 C 702.5,948.833 704.167,950.5 705.5,952.5C 702.5,952.167 700.833,950.5 700.5,947.5 Z"/></g>
<g><path style="opacity:1" fill="#82e0d8" d="M 1175.5,952.5 C 1173.11,954.02 1170.44,955.02 1167.5,955.5C 1167.5,954.5 1167.5,953.5 1167.5,952.5C 1170.17,952.5 1172.83,952.5 1175.5,952.5 Z"/></g>
<g><path style="opacity:0.545" fill="#b5e6e5" d="M 1167.5,955.5 C 1166.22,956.931 1164.55,957.598 1162.5,957.5C 1163.78,956.069 1165.45,955.402 1167.5,955.5 Z"/></g>
<g><path style="opacity:1" fill="#75dcd2" d="M 403.5,952.5 C 406.785,954.451 409.451,957.118 411.5,960.5C 409.5,959.833 407.5,959.167 405.5,958.5C 404.833,956.5 404.167,954.5 403.5,952.5 Z"/></g>
<g><path style="opacity:1" fill="#76ded5" d="M 627.5,952.5 C 625.771,957.624 622.438,961.291 617.5,963.5C 619.067,960.717 620.9,958.051 623,955.5C 624.129,953.859 625.629,952.859 627.5,952.5 Z"/></g>
<g><path style="opacity:1" fill="#6cdcd0" d="M 965.5,952.5 C 970.015,953.982 974.681,954.648 979.5,954.5C 979.5,955.5 979.5,956.5 979.5,957.5C 984.474,958.326 989.474,958.993 994.5,959.5C 994.5,960.5 994.5,961.5 994.5,962.5C 997.247,962.187 999.914,962.52 1002.5,963.5C 1002.38,964.107 1002.04,964.44 1001.5,964.5C 999.883,963.962 998.216,963.629 996.5,963.5C 985.632,961.227 975.298,957.561 965.5,952.5 Z"/></g>
<g><path style="opacity:0.545" fill="#bae2e0" d="M 1153.5,960.5 C 1152.33,961.345 1151,962.011 1149.5,962.5C 1150.18,960.824 1151.52,960.157 1153.5,960.5 Z"/></g>
<g><path style="opacity:1" fill="#94e1db" d="M 411.5,960.5 C 413.531,961.539 414.864,963.205 415.5,965.5C 413.071,964.735 411.738,963.069 411.5,960.5 Z"/></g>
<g><path style="opacity:0.545" fill="#bff4f3" d="M 996.5,963.5 C 998.216,963.629 999.883,963.962 1001.5,964.5C 1001.5,964.833 1001.5,965.167 1001.5,965.5C 999.302,965.88 997.635,965.213 996.5,963.5 Z"/></g>
<g><path style="opacity:1" fill="#7eddd5" d="M 1003.5,965.5 C 1007.75,964.919 1011.42,965.919 1014.5,968.5C 1010.47,968.483 1006.8,967.483 1003.5,965.5 Z"/></g>
<g><path style="opacity:1" fill="#86e3da" d="M 1149.5,962.5 C 1142.13,964.984 1134.46,966.984 1126.5,968.5C 1126.58,967.25 1127.24,966.417 1128.5,966C 1135.38,964.095 1142.38,962.928 1149.5,962.5 Z"/></g>
<g><path style="opacity:1" fill="#74dcd2" d="M 318.5,958.5 C 318.657,959.873 318.49,961.207 318,962.5C 315.501,963.822 314.001,965.822 313.5,968.5C 312.5,968.5 311.5,968.5 310.5,968.5C 312.817,964.854 315.484,961.52 318.5,958.5 Z"/></g>
<g><path style="opacity:1" fill="#8de1da" d="M 615.5,965.5 C 615.5,967.167 615.5,968.833 615.5,970.5C 614.5,970.5 613.5,970.5 612.5,970.5C 613.36,968.712 614.36,967.045 615.5,965.5 Z"/></g>
<g><path style="opacity:0.545" fill="#9eebe8" d="M 1016.5,968.5 C 1019.43,968.565 1022.09,969.232 1024.5,970.5C 1021.5,970.706 1018.84,970.04 1016.5,968.5 Z"/></g>
<g><path style="opacity:0.545" fill="#aceeeb" d="M 1124.5,968.5 C 1121.83,970.118 1118.83,970.785 1115.5,970.5C 1118.17,968.882 1121.17,968.215 1124.5,968.5 Z"/></g>
<g><path style="opacity:0.922" fill="#ace9e5" d="M 1024.5,970.5 C 1027.5,970.5 1030.5,970.5 1033.5,970.5C 1035.75,971.015 1037.75,972.015 1039.5,973.5C 1034.35,972.623 1029.35,971.623 1024.5,970.5 Z"/></g>
<g><path style="opacity:1" fill="#86e1d9" d="M 718.5,966.5 C 720.9,968.296 722.567,970.63 723.5,973.5C 722.5,973.5 721.5,973.5 720.5,973.5C 720.122,971.079 719.455,968.746 718.5,966.5 Z"/></g>
<g><path style="opacity:0.545" fill="#6ddfd3" d="M 1033.5,970.5 C 1044.16,972.044 1055.66,972.711 1068,972.5C 1081.19,972.091 1094.36,971.424 1107.5,970.5C 1104.17,971.5 1100.83,972.5 1097.5,973.5C 1078.17,974.747 1058.84,974.747 1039.5,973.5C 1037.75,972.015 1035.75,971.015 1033.5,970.5 Z"/></g>
<g><path style="opacity:0.545" fill="#b9f4f2" d="M 1107.5,970.5 C 1110.17,970.5 1112.83,970.5 1115.5,970.5C 1109.76,972.284 1103.76,973.284 1097.5,973.5C 1100.83,972.5 1104.17,971.5 1107.5,970.5 Z"/></g>
<g><path style="opacity:1" fill="#76dfd5" d="M 416.5,967.5 C 419.182,969.53 420.849,972.197 421.5,975.5C 420.5,975.5 419.5,975.5 418.5,975.5C 418.713,972.549 418.046,969.882 416.5,967.5 Z"/></g>
<g><path style="opacity:1" fill="#74dfd5" d="M 310.5,970.5 C 311.201,974.8 309.534,977.466 305.5,978.5C 306.669,975.489 308.336,972.822 310.5,970.5 Z"/></g>
<g><path style="opacity:0.598" fill="#cff4f4" d="M 372.5,982.5 C 366.342,980.851 360.342,981.185 354.5,983.5C 354.5,982.833 354.5,982.167 354.5,981.5C 360.832,978.637 366.832,978.97 372.5,982.5 Z"/></g>
<g><path style="opacity:0.123" fill="#c2efed" d="M 677.5,983.5 C 671.293,981.28 664.96,980.946 658.5,982.5C 660.333,979.711 663,978.378 666.5,978.5C 668.167,978.833 669.833,979.167 671.5,979.5C 673.901,980.358 675.901,981.691 677.5,983.5 Z"/></g>
<g><path style="opacity:1" fill="#76dcd3" d="M 612.5,971.5 C 611.239,975.374 610.572,979.374 610.5,983.5C 609.5,983.5 608.5,983.5 607.5,983.5C 608.566,979.218 610.233,975.218 612.5,971.5 Z"/></g>
<g><path style="opacity:0.812" fill="#b9e9e8" d="M 374.5,983.5 C 376.179,983.285 377.179,983.952 377.5,985.5C 376.29,985.068 375.29,984.401 374.5,983.5 Z"/></g>
<g><path style="opacity:1" fill="#71e2d7" d="M 421.5,976.5 C 423.592,979.473 425.092,982.807 426,986.5C 426.5,993.492 426.666,1000.49 426.5,1007.5C 426.167,1007.5 425.833,1007.5 425.5,1007.5C 425.616,1000.13 425.116,992.792 424,985.5C 423.25,984.874 422.416,984.374 421.5,984C 421.892,981.646 421.892,979.146 421.5,976.5 Z"/></g>
<g><path style="opacity:1" fill="#64dbd0" d="M 354.5,981.5 C 354.5,982.167 354.5,982.833 354.5,983.5C 349.859,985.76 346.859,989.427 345.5,994.5C 344.833,994.5 344.167,994.5 343.5,994.5C 343.5,992.5 343.5,990.5 343.5,988.5C 346.5,988.167 348.167,986.5 348.5,983.5C 350.5,982.833 352.5,982.167 354.5,981.5 Z"/></g>
<g><path style="opacity:0.2" fill="#b5ebe7" d="M 378.5,986.5 C 386.061,993.436 387.395,1001.6 382.5,1011C 381.484,1013.18 379.818,1014.34 377.5,1014.5C 386.294,1005.58 386.627,996.249 378.5,986.5 Z"/></g>
<g><path style="opacity:1" fill="#5cd1c6" d="M 607.5,990.5 C 607.5,997.5 607.5,1004.5 607.5,1011.5C 605.981,1008.47 605.315,1005.14 605.5,1001.5C 605.363,997.553 606.03,993.886 607.5,990.5 Z"/></g>
<g><path style="opacity:0.2" fill="#d2f2f1" d="M 677.5,983.5 C 679.09,983.628 680.423,984.295 681.5,985.5C 686.875,992.603 688.875,1000.6 687.5,1009.5C 686.5,1009.5 685.5,1009.5 684.5,1009.5C 687.051,999.491 684.718,990.824 677.5,983.5 Z"/></g>
<g><path style="opacity:0.924" fill="#83e4db" d="M 305.5,980.5 C 302.87,993.503 302.87,1006.5 305.5,1019.5C 304.59,1017.98 303.757,1016.31 303,1014.5C 301.094,1005.17 301.094,995.838 303,986.5C 303.566,984.277 304.4,982.277 305.5,980.5 Z"/></g>
<g><path style="opacity:0.306" fill="#caf4f3" d="M 653.5,986.5 C 649.106,991.68 647.439,997.68 648.5,1004.5C 645.877,999.279 646.211,993.946 649.5,988.5C 650.524,987.147 651.857,986.48 653.5,986.5 Z"/></g>
<g><path style="opacity:1" fill="#abe4e0" d="M 728.5,989.5 C 731.167,996.833 731.167,1004.17 728.5,1011.5C 728.5,1004.17 728.5,996.833 728.5,989.5 Z"/></g>
<g><path style="opacity:0.545" fill="#aff0ec" d="M 607.5,985.5 C 607.5,987.167 607.5,988.833 607.5,990.5C 606.03,993.886 605.363,997.553 605.5,1001.5C 605.315,1005.14 605.981,1008.47 607.5,1011.5C 607.5,1013.5 607.5,1015.5 607.5,1017.5C 605.098,1012.56 604.098,1007.23 604.5,1001.5C 604.098,995.773 605.098,990.44 607.5,985.5 Z"/></g>
<g><path style="opacity:1" fill="#6ed8ce" d="M 425.5,1007.5 C 425.167,1010.17 424.833,1012.83 424.5,1015.5C 424.768,1017.1 424.434,1018.43 423.5,1019.5C 423.334,1015.15 423.501,1010.82 424,1006.5C 424.383,1007.06 424.883,1007.39 425.5,1007.5 Z"/></g>
<g><path style="opacity:0.91" fill="#b1ece7" d="M 343.5,994.5 C 344.167,994.5 344.833,994.5 345.5,994.5C 343.853,1002.27 345.853,1008.94 351.5,1014.5C 349.857,1014.52 348.524,1013.85 347.5,1012.5C 343.872,1007.1 342.539,1001.1 343.5,994.5 Z"/></g>
<g><path style="opacity:0.871" fill="#dbf0f1" d="M 684.5,1009.5 C 684.715,1011.18 684.048,1012.18 682.5,1012.5C 682.932,1011.29 683.599,1010.29 684.5,1009.5 Z"/></g>
<g><path style="opacity:0.545" fill="#bcecea" d="M 425.5,1007.5 C 425.833,1007.5 426.167,1007.5 426.5,1007.5C 426.706,1010.5 426.04,1013.16 424.5,1015.5C 424.833,1012.83 425.167,1010.17 425.5,1007.5 Z"/></g>
<g><path style="opacity:0.949" fill="#b2eeeb" d="M 648.5,1005.5 C 653.975,1018.22 663.309,1022.22 676.5,1017.5C 672.566,1021.09 667.899,1022.26 662.5,1021C 657.782,1018.79 653.449,1015.95 649.5,1012.5C 648.526,1010.26 648.192,1007.92 648.5,1005.5 Z"/></g>
<g><path style="opacity:0.945" fill="#caf2f1" d="M 682.5,1012.5 C 682.586,1013.5 682.252,1014.33 681.5,1015C 680.1,1016.44 678.433,1017.27 676.5,1017.5C 678.091,1015.37 680.091,1013.7 682.5,1012.5 Z"/></g>
<g><path style="opacity:1" fill="#7ce1d9" d="M 728.5,1012.5 C 728.055,1016.09 727.055,1019.42 725.5,1022.5C 725.5,1019.17 725.5,1015.83 725.5,1012.5C 726.5,1012.5 727.5,1012.5 728.5,1012.5 Z"/></g>
<g><path style="opacity:0.552" fill="#dff2f3" d="M 351.5,1014.5 C 360.129,1019.83 368.796,1019.83 377.5,1014.5C 377.218,1015.78 376.551,1016.78 375.5,1017.5C 370.392,1019.33 365.058,1020 359.5,1019.5C 356.692,1019.31 354.025,1018.64 351.5,1017.5C 351.5,1016.5 351.5,1015.5 351.5,1014.5 Z"/></g>
<g><path style="opacity:1" fill="#84e9e1" d="M 375.5,1017.5 C 375.586,1018.5 375.252,1019.33 374.5,1020C 370.84,1020.55 367.173,1021.05 363.5,1021.5C 361.667,1021.41 360.334,1020.75 359.5,1019.5C 365.058,1020 370.392,1019.33 375.5,1017.5 Z"/></g>
<g><path style="opacity:0.545" fill="#a7e3e0" d="M 423.5,1019.5 C 423.598,1021.55 422.931,1023.22 421.5,1024.5C 421.077,1022.22 421.744,1020.55 423.5,1019.5 Z"/></g>
<g><path style="opacity:1" fill="#7fe0d7" d="M 607.5,1017.5 C 608.5,1017.5 609.5,1017.5 610.5,1017.5C 610.19,1021.7 610.857,1025.7 612.5,1029.5C 611.542,1029.05 610.708,1028.38 610,1027.5C 608.392,1024.38 607.559,1021.05 607.5,1017.5 Z"/></g>
<g><path style="opacity:1" fill="#73dad0" d="M 305.5,1019.5 C 306.5,1019.5 307.5,1019.5 308.5,1019.5C 308.961,1023.21 309.627,1026.88 310.5,1030.5C 307.887,1027.36 306.221,1023.69 305.5,1019.5 Z"/></g>
<g><path style="opacity:0.545" fill="#b3e4e2" d="M 725.5,1022.5 C 725.34,1024.15 724.674,1025.49 723.5,1026.5C 723.157,1024.52 723.824,1023.18 725.5,1022.5 Z"/></g>
<g><path style="opacity:0.922" fill="#92e3dd" d="M 612.5,1030.5 C 614.622,1032.05 616.289,1034.05 617.5,1036.5C 614.893,1035.29 613.226,1033.29 612.5,1030.5 Z"/></g>
<g><path style="opacity:1" fill="#73ded2" d="M 420.5,1027.5 C 418.942,1031.39 416.609,1034.72 413.5,1037.5C 413.011,1033.51 414.678,1031.18 418.5,1030.5C 418.285,1028.82 418.952,1027.82 420.5,1027.5 Z"/></g>
<g><path style="opacity:1" fill="#74e0d5" d="M 720.5,1032.5 C 719.567,1035.64 717.9,1038.31 715.5,1040.5C 714.803,1036.17 716.47,1033.51 720.5,1032.5 Z"/></g>
<g><path style="opacity:1" fill="#75ddd3" d="M 313.5,1035.5 C 315.011,1036.5 316.678,1037.17 318.5,1037.5C 319.167,1039.5 319.833,1041.5 320.5,1043.5C 317.137,1041.8 314.803,1039.13 313.5,1035.5 Z"/></g>
<g><path style="opacity:0.545" fill="#b2f2f0" d="M 413.5,1038.5 C 413.5,1039.83 412.833,1040.5 411.5,1040.5C 411.5,1039.17 412.167,1038.5 413.5,1038.5 Z"/></g>
<g><path style="opacity:1" fill="#7bded5" d="M 411.5,1040.5 C 409.451,1043.88 406.785,1046.55 403.5,1048.5C 404.167,1046.5 404.833,1044.5 405.5,1042.5C 407.5,1041.83 409.5,1041.17 411.5,1040.5 Z"/></g>
<g><path style="opacity:1" fill="#66ded2" d="M 710.5,1045.5 C 707.485,1048.29 704.151,1050.62 700.5,1052.5C 701.494,1050.34 702.828,1048.34 704.5,1046.5C 703.833,1045.83 703.167,1045.17 702.5,1044.5C 703,1044.17 703.5,1043.83 704,1043.5C 705.921,1045 708.088,1045.67 710.5,1045.5 Z"/></g>
<g><path style="opacity:0.922" fill="#99e6e0" d="M 617.5,1038.5 C 618.675,1038.28 619.675,1038.61 620.5,1039.5C 622.215,1041.88 624.215,1043.88 626.5,1045.5C 627.11,1046.39 627.443,1047.39 627.5,1048.5C 623.743,1045.72 620.41,1042.38 617.5,1038.5 Z"/></g>
<g><path style="opacity:1" fill="#63dcd0" d="M 626.5,1045.5 C 629.93,1046.77 632.93,1048.77 635.5,1051.5C 637.396,1052.47 639.396,1052.8 641.5,1052.5C 642.037,1055.04 643.37,1057.04 645.5,1058.5C 640.999,1057.16 636.666,1055.33 632.5,1053C 630.76,1051.48 629.094,1049.98 627.5,1048.5C 627.443,1047.39 627.11,1046.39 626.5,1045.5 Z"/></g>
<g><path style="opacity:1" fill="#6adcd0" d="M 321.5,1045.5 C 323.288,1045.21 324.955,1045.55 326.5,1046.5C 328.999,1049.78 332.332,1051.78 336.5,1052.5C 336.5,1053.5 336.5,1054.5 336.5,1055.5C 330.665,1053.42 325.665,1050.08 321.5,1045.5 Z"/></g>
<g><path style="opacity:1" fill="#7ae0d5" d="M 402.5,1048.5 C 400.715,1050.95 398.382,1052.62 395.5,1053.5C 395.5,1052.5 395.5,1051.5 395.5,1050.5C 397.737,1049.55 400.071,1048.88 402.5,1048.5 Z"/></g>
<g><path style="opacity:1" fill="#84e4db" d="M 395.5,1053.5 C 392.584,1055.92 389.251,1057.59 385.5,1058.5C 387.118,1057.55 388.451,1056.22 389.5,1054.5C 391.396,1053.53 393.396,1053.2 395.5,1053.5 Z"/></g>
<g><path style="opacity:0.961" fill="#6edfd4" d="M 698.5,1053.5 C 696.3,1055.64 693.633,1057.14 690.5,1058C 688.866,1058.49 687.199,1058.66 685.5,1058.5C 685.167,1058.5 684.833,1058.5 684.5,1058.5C 684.5,1057.5 684.5,1056.5 684.5,1055.5C 689.222,1055.15 693.889,1054.49 698.5,1053.5 Z"/></g>
<g><path style="opacity:0.545" fill="#a7eae5" d="M 384.5,1058.5 C 380.982,1060.97 376.982,1061.97 372.5,1061.5C 376.298,1060.13 380.298,1059.13 384.5,1058.5 Z"/></g>
<g><path style="opacity:0.961" fill="#a5e8e5" d="M 684.5,1058.5 C 684.833,1058.5 685.167,1058.5 685.5,1058.5C 685.038,1059.88 684.038,1060.55 682.5,1060.5C 679.551,1061.3 676.551,1061.64 673.5,1061.5C 673.5,1061.17 673.5,1060.83 673.5,1060.5C 677.331,1060.58 680.998,1059.92 684.5,1058.5 Z"/></g>
<g><path style="opacity:0.545" fill="#b5e7e5" d="M 344.5,1058.5 C 346.403,1058.8 348.07,1059.46 349.5,1060.5C 347.302,1060.88 345.635,1060.21 344.5,1058.5 Z"/></g>
<g><path style="opacity:0.983" fill="#8ee5dd" d="M 646.5,1058.5 C 655.418,1060.1 664.418,1060.77 673.5,1060.5C 673.5,1060.83 673.5,1061.17 673.5,1061.5C 666.178,1062.49 658.845,1062.32 651.5,1061C 649.685,1060.24 648.019,1059.41 646.5,1058.5 Z"/></g>
</svg>
