<?xml version="1.0" encoding="utf-8"?>
<svg width="64px" height="64px" viewBox="0 0 64 64" version="1.1" xmlns="http://www.w3.org/2000/svg">
  <title>Currency Conversion</title>
  <desc>Created with Sketch.</desc>
  <g id="Page-1" stroke="none" stroke-width="1" fill="none" fill-rule="evenodd">
    <g id="Finance" transform="translate(-524.000000, -372.000000)" fill="#4573E3">
      <g id="Currency-Conversion" transform="translate(524.000000, 372.000000)">
        <path d="M 31.815 7.258 C 18.253 7.258 7.257 18.251 7.257 31.811 C 7.257 45.373 18.253 56.368 31.815 56.368 C 45.375 56.368 56.37 45.373 56.37 31.811 C 56.37 18.251 45.375 7.258 31.815 7.258 M 31.815 9.394 C 44.178 9.394 54.233 19.451 54.233 31.811 C 54.233 44.174 44.178 54.232 31.815 54.232 C 19.449 54.232 9.393 44.174 9.393 31.811 C 9.393 19.451 19.449 9.394 31.815 9.394" id="Fill-1" style="fill: rgb(0, 0, 0);"/>
        <path d="M 31.815 43.555 C 27.693 43.555 24.341 40.682 24.341 37.15 C 24.341 36.562 24.817 36.082 25.407 36.082 C 25.997 36.082 26.476 36.562 26.476 37.15 C 26.476 39.505 28.871 41.42 31.815 41.42 C 34.756 41.42 37.152 39.505 37.152 37.15 C 37.152 34.795 34.756 32.879 31.815 32.879 C 27.693 32.879 24.341 30.006 24.341 26.475 C 24.341 22.942 27.693 20.068 31.815 20.068 C 35.936 20.068 39.286 22.942 39.286 26.475 C 39.286 27.063 38.81 27.542 38.222 27.542 C 37.632 27.542 37.152 27.063 37.152 26.475 C 37.152 24.119 34.756 22.203 31.815 22.203 C 28.871 22.203 26.476 24.119 26.476 26.475 C 26.476 28.831 28.871 30.744 31.815 30.744 C 35.936 30.744 39.286 33.618 39.286 37.15 C 39.286 40.682 35.936 43.555 31.815 43.555" id="Fill-3" style="fill: rgb(0, 0, 0);"/>
        <path d="M 31.815 45.691 C 31.225 45.691 30.745 45.214 30.745 44.623 L 30.745 19.001 C 30.745 18.413 31.225 17.933 31.815 17.933 C 32.403 17.933 32.882 18.413 32.882 19.001 L 32.882 44.623 C 32.882 45.214 32.403 45.691 31.815 45.691" id="Fill-5" style="fill: rgb(0, 0, 0);"/>
        <path d="M 31.813 0.853 C 31.813 0.853 29.708 0.907 28.65 1.012 C 27.61 1.119 26.585 1.275 25.573 1.481 C 23.559 1.897 21.618 2.504 19.766 3.284 C 16.067 4.862 12.734 7.124 9.924 9.918 C 4.35 15.552 0.852 23.265 0.852 31.811 C 0.852 40.36 4.314 48.096 9.92 53.705 C 15.528 59.307 23.267 62.773 31.815 62.773 C 40.361 62.773 48.068 59.281 53.702 53.71 C 59.274 48.073 62.776 40.36 62.776 31.811 C 62.776 23.264 59.284 15.558 53.713 9.925 C 48.084 4.355 40.361 0.854 31.8 0.853 M 31.799 2.987 C 39.759 2.989 47.005 6.201 52.193 11.444 C 57.439 16.64 60.641 23.867 60.641 31.811 C 60.641 39.757 57.429 46.995 52.184 52.19 C 46.987 57.435 39.76 60.638 31.815 60.638 C 23.869 60.638 16.63 57.425 11.434 52.18 C 6.183 46.984 2.987 39.755 2.987 31.811 C 2.987 23.867 6.196 16.632 11.441 11.438 C 14.047 8.818 17.155 6.704 20.604 5.255 C 22.329 4.521 24.142 3.953 26.018 3.571 C 27.861 3.187 31.811 2.988 31.811 2.988" id="Fill-25" style="fill: rgb(0, 0, 0); paint-order: fill;"/>
      </g>
    </g>
  </g>
</svg>